<?xml version="1.0" encoding="utf-8"?>
<!-- Generator: Adobe Illustrator 26.5.0, SVG Export Plug-In . SVG Version: 6.00 Build 0)  -->
<svg version="1.1" id="Capa_1" xmlns="http://www.w3.org/2000/svg" xmlns:xlink="http://www.w3.org/1999/xlink" x="0px" y="0px"
	 viewBox="0 0 500 800" style="enable-background:new 0 0 500 800;" xml:space="preserve">
<style type="text/css">
	.st0{opacity:0.15;clip-path:url(#SVGID_00000085249442293914318030000005075764276560902050_);}
	.st1{fill:#FFBA03;}
</style>
<g>
	<defs>
		<rect id="SVGID_1_" width="500" height="800"/>
	</defs>
	<clipPath id="SVGID_00000135668231514502812260000011454350790556965544_">
		<use xlink:href="#SVGID_1_"  style="overflow:visible;"/>
	</clipPath>
	<g style="opacity:0.15;clip-path:url(#SVGID_00000135668231514502812260000011454350790556965544_);">
		<path class="st1" d="M118,652.1l-4.3,18.2c8.3,1.6,14.3,4.1,18.6,9.9c4.8,6.5,4.2,12.6-1.5,16.9c-6.5,4.9-14.4,3.6-25.4-11.1
			L92,696c13.3,17.8,12.1,25.3,4.9,30.7c-6.2,4.7-13.7,2-19.7-6c-5.1-6.9-6.2-15.6-5.2-24.2l-18.5,0.3c-2.4,11.2-0.1,24,9.9,37.3
			c12.3,16.4,31.4,23.9,46.6,12.5c10.5-8,12.1-19.8,7.7-31.3l0.5-0.4c10.3,6.1,20,6.3,28.4,0c14.3-10.7,14-28,1.2-45
			C140.3,660,130.1,654.8,118,652.1z"/>
		<path class="st1" d="M401.7,655.8l10-1.8c-1-4.5-1.1-8,0.9-11.4c2.2-3.8,5.4-4.8,8.8-2.9c3.9,2.2,4.9,6.4,0,15.1l7.9,4.5
			c6-10.5,10-11.5,14.3-9.1c3.7,2.1,4,6.4,1.3,11.2c-2.3,4-6.4,6.5-11,7.9l4.2,9.2c6.1-1.2,12-5.2,16.5-13.1
			c5.5-9.7,5.1-20.9-3.9-26c-6.3-3.5-12.5-1.7-17.3,3l-0.3-0.2c0.8-6.5-1.2-11.4-6.2-14.2c-8.5-4.8-17-0.9-22.8,9.2
			C400.8,643,400.4,649.2,401.7,655.8z"/>
		<path class="st1" d="M383.6,124.4l16.6,8.6c3.6-7.7,7.4-12.9,14.1-15.7c7.4-3.1,13.2-1.1,16,5.5c3.2,7.5,0,14.9-16.9,22l6.5,15.4
			c20.5-8.6,27.5-5.6,31,2.7c3,7.2-1.4,13.8-10.6,17.7c-7.9,3.3-16.6,2.3-24.7-0.8l-4.2,18c10.3,5,23.3,5.9,38.6-0.5
			c18.9-8,30.8-24.7,23.4-42.2c-5.2-12.1-16.3-16.5-28.5-15l-0.3-0.6c8.4-8.6,11-17.9,6.9-27.6c-7-16.5-23.8-20.4-43.4-12.1
			C396.7,104.7,389.1,113.3,383.6,124.4z"/>
		<path class="st1" d="M105.8,270.6l5.9,9.9c6.8-2.2,13-7.4,17.1-17c5-11.8,3.1-24.4-7.8-29c-7.5-3.2-14.4-0.3-19.2,5.6l-0.4-0.1
			c0.1-7.5-2.8-12.7-8.8-15.3c-10.2-4.4-19.4,1.1-24.6,13.3c-2.9,7.1-2.6,14.3-0.3,21.6l11.1-3.3c-1.7-5-2.3-9-0.5-13.1
			c1.9-4.5,5.4-6.1,9.5-4.4c4.6,1.9,6.4,6.6,1.9,17.1l9.6,4.1c5.4-12.7,9.9-14.4,15-12.2c4.4,1.9,5.3,6.8,2.9,12.5
			C115.1,265.2,110.8,268.5,105.8,270.6z"/>
	</g>
</g>
</svg>
