<?xml version="1.0" encoding="UTF-8"?><svg id="b" xmlns="http://www.w3.org/2000/svg" viewBox="0 0 120.312 110.061"><g id="c"><g><path d="M112.92,47.939c-4.674-7.843-11.231-14.564-17.403-22.362,2.854-4.805,6.402-10.611,9.771-16.518,1.717-3.01,2.155-6.306-1.386-8.242-3.508-1.918-6.36-.259-8.385,2.91-.717,1.122-1.331,2.309-2.007,3.456-2.83,4.802-5.667,9.601-8.448,14.313-19.328-8.109-37.618-6.946-55.609,2.526-1.215-1.853-2.276-3.328-3.188-4.89-2.939-5.033-5.831-10.093-8.723-15.153C15.645,.662,12.738-.974,9.262,.678c-3.865,1.838-3.447,5.212-1.641,8.511,.64,1.168,1.292,2.33,1.974,3.472,3.559,5.958,7.129,11.908,10.915,18.227-1.714,1.496-3.196,2.599-4.453,3.917C7.813,43.456,2.643,53.723,.238,65.395c-.783,3.798,.283,6.799,4.473,7.452,3.715,.579,5.849-1.261,6.599-5.088,.603-3.074,1.63-6.093,2.74-9.034,8.198-21.731,29.202-32.895,48.532-31.302,24.728,2.038,42.063,18.376,45.76,41.417,3.055,19.048-6.125,29.932-25.307,29.963-10.163,.016-20.327-.065-30.49-.016-5.187,.025-7.849,2.073-7.562,5.85,.343,4.513,3.309,5.476,7.358,5.421,11.162-.151,22.327-.033,33.49-.033,13.723,0,19.833-5.35,19.833-5.35,6.34-5.327,11.804-11.258,13.534-19.686,2.703-13.165,.447-25.768-6.277-37.051Z" style="fill:#3ddb83;"/><path d="M34.845,54.754c-3.983,.078-7.175,3.376-7.187,7.426-.011,4.043,3.195,7.362,7.163,7.415,4.042,.054,7.276-3.07,7.405-7.151,.134-4.239-3.256-7.77-7.381-7.69Z" style="fill:#3ddb83;"/><path d="M81.329,54.758c-4.114-.235-7.64,3.185-7.659,7.43-.019,4.015,3.2,7.323,7.192,7.393,3.972,.069,7.314-3.158,7.428-7.172,.114-4.024-2.979-7.423-6.961-7.651Z" style="fill:#3ddb83;"/><path d="M26.146,76.639l-6.622,15.847h4.187l1.111-2.886h6.67l1.111,2.886h4.162l-6.622-15.847h-3.997Zm0,9.603l2.011-5.203,2.034,5.203h-4.045Z" style="fill:#3ddb83;"/><path d="M52.799,88.281c.957-.982,1.442-2.227,1.442-3.695,0-1.483-.484-2.738-1.44-3.729-.961-.997-2.173-1.502-3.601-1.502s-2.64,.505-3.6,1.501c-.957,.991-1.441,2.246-1.441,3.729,0,1.469,.485,2.713,1.442,3.695,.961,.987,2.172,1.487,3.599,1.487s2.638-.5,3.599-1.487Zm-7.64-3.695c0-1.232,.38-2.226,1.161-3.035,.775-.804,1.718-1.195,2.88-1.195s2.104,.392,2.881,1.196c.78,.809,1.16,1.802,1.16,3.034,0,1.216-.379,2.197-1.159,2.998-.776,.797-1.719,1.185-2.882,1.185s-2.105-.388-2.882-1.185c-.78-.801-1.159-1.782-1.159-2.998Z" style="fill:#3ddb83;"/><path d="M55.547,90.797c1.724-1.691,2.598-3.781,2.598-6.211,0-2.445-.874-4.547-2.598-6.246-1.722-1.695-3.856-2.556-6.346-2.556s-4.625,.86-6.347,2.556c-1.724,1.698-2.597,3.8-2.597,6.246,0,2.431,.874,4.521,2.597,6.211,1.721,1.688,3.856,2.543,6.347,2.543s4.625-.855,6.346-2.543Zm-14.289-6.211c0-2.199,.752-4.009,2.298-5.533,1.528-1.506,3.428-2.269,5.646-2.269,2.248,0,4.095,.742,5.645,2.269,1.547,1.524,2.299,3.335,2.299,5.533,0,2.182-.752,3.979-2.299,5.496-1.548,1.52-3.395,2.258-5.645,2.258s-4.098-.738-5.646-2.258c-1.546-1.516-2.298-3.313-2.298-5.496Z" style="fill:#3ddb83;"/><path d="M71.982,89.151c-.418,.3-.989,.449-1.715,.449-1.703,0-2.743-.78-3.122-2.341l-4.021,.78c.205,1.514,.95,2.692,2.235,3.536,1.285,.843,2.85,1.265,4.694,1.265,1.86,0,3.414-.449,4.659-1.348,1.246-.898,1.869-2.16,1.869-3.784,0-2.429-1.451-3.966-4.353-4.612l-3.287-.733c-.852-.188-1.277-.63-1.277-1.324,0-.457,.197-.84,.592-1.146,.394-.308,.906-.462,1.537-.462,.662,0,1.253,.193,1.773,.58,.521,.386,.852,.934,.993,1.644l3.832-.78c-.3-1.436-1.033-2.559-2.2-3.371-1.166-.812-2.617-1.218-4.352-1.218-1.876,0-3.39,.449-4.541,1.349-1.15,.898-1.727,2.112-1.727,3.642,0,2.413,1.419,3.942,4.258,4.589l3.311,.709c.552,.11,.935,.276,1.147,.497s.319,.521,.319,.898c0,.489-.209,.883-.627,1.183Z" style="fill:#3ddb83;"/><path d="M82.178,92.986h4.902v-4.849h3.236c1.951,0,3.534-.555,4.705-1.648,1.181-1.103,1.779-2.578,1.779-4.386,0-1.773-.581-3.229-1.729-4.323-1.14-1.089-2.685-1.641-4.59-1.641h-8.305v16.847Zm1-15.847h7.305c1.64,0,2.952,.459,3.899,1.363,.955,.912,1.419,2.09,1.419,3.601,0,1.541-.479,2.736-1.461,3.655-.98,.915-2.334,1.379-4.023,1.379h-4.236v4.849h-2.902v-14.847Z" style="fill:#3ddb83;"/><path d="M92.159,84.137c.538-.498,.811-1.167,.811-1.987,0-.789-.277-1.442-.825-1.941-.534-.487-1.244-.734-2.11-.734h-3.953v5.399h3.953c.883,0,1.599-.248,2.125-.736Zm-5.078-3.663h2.953c.617,0,1.088,.154,1.437,.473,.336,.307,.499,.7,.499,1.203,0,.538-.16,.948-.49,1.254-.341,.316-.813,.47-1.445,.47h-2.953v-3.399Z" style="fill:#3ddb83;"/></g></g></svg>