<?xml version="1.0" encoding="utf-8"?>
<!-- Generator: Adobe Illustrator 26.0.2, SVG Export Plug-In . SVG Version: 6.00 Build 0)  -->
<svg version="1.1" id="Capa_1" xmlns="http://www.w3.org/2000/svg" xmlns:xlink="http://www.w3.org/1999/xlink" x="0px" y="0px"
	 viewBox="0 0 500 647.1" style="enable-background:new 0 0 500 647.1;" xml:space="preserve">
<style type="text/css">
	.st0{fill:#FFBA03;}
	.st1{opacity:0.25;fill:#FFBA03;}
	.st2{opacity:0.75;fill:#FFBA03;}
	.st3{opacity:0;}
</style>
<path class="st0" d="M250,65.4c-87.4,0-158.2,70.8-158.2,158.2S162.6,381.8,250,381.8S408.2,311,408.2,223.6S337.4,65.4,250,65.4z
	 M250,355.4c-72.8,0-131.8-59-131.8-131.8S177.2,91.8,250,91.8s131.8,59,131.8,131.8S322.8,355.4,250,355.4z"/>
<g>
	<path class="st0" d="M411.4,197.2l4.2-18c8.1,3.1,16.8,4.1,24.7,0.8c9.2-3.9,13.6-10.5,10.6-17.7c-3.5-8.3-10.5-11.3-31-2.7
		l-6.5-15.4c16.9-7.1,20.1-14.5,16.9-22c-2.8-6.6-8.6-8.6-16-5.5c-6.7,2.8-10.5,8-14.1,15.7l-16.6-8.6c5.5-11.1,13.1-19.7,24.5-24.6
		c19.6-8.3,36.4-4.4,43.4,12.1c4.1,9.7,1.5,19-6.9,27.6l0.3,0.6c12.2-1.5,23.3,2.9,28.5,15c7.4,17.5-4.5,34.2-23.4,42.2
		C434.7,203.1,421.7,202.2,411.4,197.2z"/>
</g>
<g>
	<path class="st1" d="M118.2,464.5l28.5,9.6L196.4,344c-9.4-4.2-18.1-9.4-26.2-15.5L118.2,464.5z"/>
	<path class="st2" d="M295.7,0.5l-35.1,91.8c10.3,0.8,20.3,2.8,29.9,5.9l37.4-97.7H295.7z"/>
	<path class="st2" d="M340.7,0.5l-39,101.9c9.4,4,18.2,9.1,26.4,15.1L372.8,0.5H340.7z"/>
	<path class="st1" d="M173.8,436.6l28.5,9.6l35-91.5c-10.3-1-20.2-3.1-29.7-6.4L173.8,436.6z"/>
	<path class="st1" d="M232,407.5l28.5,9.6l25.5-66.7c-10.8,3.1-22.2,4.8-34,5L232,407.5z"/>
	<path class="st2" d="M387.7,0.5l-48.3,126.3c8.4,7.8,15.9,16.7,22,26.4L419.9,0.5H387.7z"/>
	<path class="st1" d="M64.1-0.6L204.3,100c10.3-3.8,21.3-6.4,32.6-7.5l-129.7-93H64.1z"/>
	<path class="st2" d="M501,312.8v-30.9L378.5,194c2.2,9.5,3.3,19.4,3.3,29.6c0,1.2,0,2.5-0.1,3.7L501,312.8z"/>
	<path class="st1" d="M3.8-0.6l166.3,119.3c7.2-5.5,15-10.3,23.3-14.2L46.9-0.6H3.8z"/>
	<path class="st2" d="M501,325.2L380.9,239c-1.1,9.2-3.1,18.1-6,26.6L501,356.1V325.2z"/>
	<path class="st2" d="M501,403.3l-0.7-33.3l-129.8-93.1c-3.4,7.8-7.6,15.1-12.4,22L501,403.3z"/>
	<path class="st1" d="M0.2,11.1V42L144,145.2c5-6.8,10.7-13.1,16.9-18.8L0.2,11.1z"/>
</g>
<g class="st3">
	<path class="st0" d="M280.1,242.9l-42.8,111.9c4.2,0.4,8.4,0.6,12.7,0.6c0.7,0,1.3,0,2,0l39.8-104.1L280.1,242.9z"/>
	<path class="st0" d="M343.6,199.9l-3.7,9.7l41,29.4c0.5-3.9,0.7-7.8,0.9-11.8L343.6,199.9z"/>
	<path class="st0" d="M378.5,194c-3.4-14.7-9.2-28.5-17-40.8l-8.6,22.4L378.5,194z"/>
	<path class="st0" d="M326.3,245.1l44.3,31.8c1.6-3.7,3.1-7.4,4.4-11.2l-44.4-31.8L326.3,245.1z"/>
	<polygon class="st0" points="303,183.1 314.6,191.5 318.4,181.8 306.7,173.4 	"/>
	<polygon class="st0" points="258.4,182 254.1,193.3 264.2,200.5 268.5,189.3 	"/>
	<path class="st0" d="M244.8,217.6L196.4,344c3.6,1.6,7.4,3.1,11.2,4.4l47.3-123.6L244.8,217.6z"/>
	<polygon class="st0" points="281.5,155.3 271.4,148.1 267.7,157.8 277.7,165 	"/>
	<path class="st0" d="M286,350.4c29.6-8.4,55-26.9,72.2-51.5L317,269.4L286,350.4z"/>
	<polygon class="st0" points="289.4,218.6 301.1,227 305.4,215.8 293.7,207.4 	"/>
	<path class="st0" d="M260.6,92.2c-3.5-0.3-7-0.4-10.6-0.4c-4.4,0-8.8,0.2-13.1,0.6l18.5,13.3L260.6,92.2z"/>
	<path class="st0" d="M290.7,131.1l11-28.7c-3.7-1.6-7.4-3-11.3-4.2l-9.8,25.7L290.7,131.1z"/>
	<path class="st0" d="M233.2,164l-63-45.2c-3.2,2.4-6.3,5-9.2,7.7l67.9,48.7L233.2,164z"/>
	<path class="st0" d="M246.1,130l-41.9-30c-3.7,1.4-7.3,2.9-10.9,4.6l49,35.2L246.1,130z"/>
	<path class="st0" d="M144,145.2c-16.2,21.9-25.8,49-25.8,78.4c0,42.8,20.4,80.8,52,104.9l49.4-129L144,145.2z"/>
	<path class="st0" d="M327.6,157.5l11.8-30.8c-3.6-3.3-7.4-6.4-11.3-9.4l-12.1,31.7L327.6,157.5z"/>
	<path class="st0" d="M280.6,123.8l9.8-25.7c-9.5-3.1-19.5-5.1-29.9-5.9l-5.2,13.5L280.6,123.8z"/>
	<polygon class="st0" points="258.4,182 233.2,164 228.9,175.2 254.1,193.3 	"/>
	<polygon class="st0" points="271.4,148.1 246.1,130 242.4,139.7 267.7,157.8 	"/>
	<path class="st0" d="M219.6,199.5l-49.4,129c8.1,6.1,16.8,11.4,26.2,15.5l48.4-126.5L219.6,199.5z"/>
	<path class="st0" d="M315.9,149.2l12.1-31.7c-8.1-6-17-11.1-26.4-15.1l-11,28.7L315.9,149.2z"/>
	<path class="st0" d="M254.9,224.8l-47.3,123.6c9.5,3.2,19.4,5.4,29.7,6.4l42.8-111.9L254.9,224.8z"/>
	<polygon class="st0" points="268.5,189.3 264.2,200.5 289.4,218.6 293.7,207.4 	"/>
	<polygon class="st0" points="303,183.1 306.7,173.4 281.5,155.3 277.7,165 	"/>
	<polygon class="st0" points="314.6,191.5 339.9,209.6 343.6,199.9 318.4,181.8 	"/>
	<polygon class="st0" points="301.1,227 326.3,245.1 330.6,233.9 305.4,215.8 	"/>
	<path class="st0" d="M291.8,251.3L252,355.4c11.8-0.2,23.2-1.9,34-5l31-81.1L291.8,251.3z"/>
	<path class="st0" d="M352.9,175.6l8.6-22.4c-6.2-9.8-13.6-18.6-22-26.4l-11.8,30.8L352.9,175.6z"/>
	<polygon class="st0" points="318.4,181.8 327.6,157.5 315.9,149.2 306.7,173.4 	"/>
	<polygon class="st0" points="281.5,155.3 290.7,131.1 280.6,123.8 271.4,148.1 	"/>
	<path class="st0" d="M343.6,199.9l38.2,27.4c0-1.2,0.1-2.5,0.1-3.7c0-10.2-1.2-20.1-3.3-29.6l-25.6-18.4L343.6,199.9z"/>
	<path class="st0" d="M255.4,105.7l-18.5-13.3c-11.4,1.1-22.3,3.7-32.6,7.5l41.9,30L255.4,105.7z"/>
	<polygon class="st0" points="280.6,123.8 255.4,105.7 246.1,130 271.4,148.1 	"/>
	<polygon class="st0" points="306.7,173.4 315.9,149.2 290.7,131.1 281.5,155.3 	"/>
	<polygon class="st0" points="327.6,157.5 318.4,181.8 343.6,199.9 352.9,175.6 	"/>
	<path class="st0" d="M330.6,233.9l44.4,31.8c2.9-8.5,4.9-17.4,6-26.6l-41-29.4L330.6,233.9z"/>
	<polygon class="st0" points="277.7,165 267.7,157.8 258.4,182 268.5,189.3 	"/>
	<path class="st0" d="M242.4,139.7l-49-35.2c-8.3,3.9-16.1,8.7-23.3,14.2l63,45.2L242.4,139.7z"/>
	<polygon class="st0" points="293.7,207.4 305.4,215.8 314.6,191.5 303,183.1 	"/>
	<polygon class="st0" points="267.7,157.8 242.4,139.7 233.2,164 258.4,182 	"/>
	<polygon class="st0" points="268.5,189.3 293.7,207.4 303,183.1 277.7,165 	"/>
	<polygon class="st0" points="305.4,215.8 330.6,233.9 339.9,209.6 314.6,191.5 	"/>
	<polygon class="st0" points="289.4,218.6 280.1,242.9 291.8,251.3 301.1,227 	"/>
	<path class="st0" d="M228.9,175.2l-67.9-48.7c-6.2,5.7-11.9,12-16.9,18.8l75.6,54.2L228.9,175.2z"/>
	<polygon class="st0" points="254.1,193.3 244.8,217.6 254.9,224.8 264.2,200.5 	"/>
	<path class="st0" d="M317,269.4l41.2,29.5c4.8-6.9,9-14.3,12.4-22l-44.3-31.8L317,269.4z"/>
	<polygon class="st0" points="228.9,175.2 219.6,199.5 244.8,217.6 254.1,193.3 	"/>
	<polygon class="st0" points="264.2,200.5 254.9,224.8 280.1,242.9 289.4,218.6 	"/>
	<polygon class="st0" points="291.8,251.3 317,269.4 326.3,245.1 301.1,227 	"/>
</g>
</svg>
