<?xml version="1.0" encoding="utf-8"?>
<!-- Generator: Adobe Illustrator 25.4.1, SVG Export Plug-In . SVG Version: 6.00 Build 0)  -->
<svg version="1.1" id="Capa_1" xmlns="http://www.w3.org/2000/svg" xmlns:xlink="http://www.w3.org/1999/xlink" x="0px" y="0px"
	 viewBox="0 0 400 700" style="enable-background:new 0 0 400 700;" xml:space="preserve">
<style type="text/css">
	.st0{fill:none;stroke:#3DDB84;stroke-width:2;stroke-miterlimit:10;}
	.st1{fill:#083042;}
	.st2{fill:#3DDA84;}
	.st3{fill:#F46634;}
	.st4{fill:#FEFEFE;}
	.st5{fill:#3DDB84;}
	.st6{fill:#FCFEFD;}
	.st7{fill:#3DDB83;}
	.st8{fill:#083143;}
	.st9{opacity:0;}
</style>
<circle class="st0" cx="455.7" cy="81.5" r="133.5"/>
<circle class="st0" cx="-10.2" cy="14" r="133.5"/>
<circle class="st0" cx="11.3" cy="759.2" r="133.5"/>
<g>
	<path class="st1" d="M80.6,609.1c1,0.5,2.1,1.2,3,1.7c0,0.1,0.1,0.1,0.1,0.1c2.1,1.3,4,2.8,5.7,4.5c5.8,5.8,9.1,12.9,9.8,21.1
		c0.5,5.9-0.5,11.5-3,16.8c-0.1,0.2-0.3,0.4-0.3,0.7c-0.5,1-1.2,2.1-1.7,3.1c-0.1,0-0.1,0.1-0.1,0.1c-1,1.6-2.1,3.1-3.5,4.5
		c-5.3,5.8-11.8,9.3-19.5,10.6c-6.7,1.1-13.3,0.2-19.5-2.7c-3.7-1.7-7-4-9.8-6.9c-4.6-4.6-7.6-10.3-9-16.8c-1.5-7-0.7-13.7,2.1-20.3
		c1.5-3.6,3.7-6.8,6.3-9.6c4-4.2,8.8-7.2,14.3-8.9c4.5-1.5,9.2-1.8,13.9-1.3c3.8,0.4,7.3,1.5,10.7,3.2
		C80.5,609.1,80.5,609.2,80.6,609.1z M51,631.3c-4.6,8.3-1.4,18.6,6.9,23c8.2,4.3,18.3,1.3,22.7-7.1c4.2-8,1.3-18.1-6.8-22.5
		C65.6,620.3,55.4,623.3,51,631.3z M85.8,650.7c0.7-1.3,1.4-2.5,2.1-3.8c0.2-0.4,0.1-0.5-0.2-0.7c-0.8-0.4-1.6-0.9-2.5-1.4
		c-0.3-0.1-0.4-0.1-0.6,0.1c-0.2,0.3-0.4,0.7-0.5,1c-0.1,0.3-0.1,0.4,0.1,0.6c0.3,0.1,0.6,0.4,0.9,0.5c0.2,0.1,0.2,0.2,0.1,0.4
		c-0.7,1.3-1.4,2.5-2.1,3.8c-0.4,0.7-0.8,1.4-1.2,2.1c-0.2,0.4-0.2,0.5,0.2,0.7c0.3,0.1,0.5,0.3,0.8,0.4c0.4,0.2,0.5,0.2,0.7-0.2
		C84.5,653.1,85.2,651.9,85.8,650.7z M90.3,653.2c0.7-1.3,1.4-2.5,2.1-3.7c0.2-0.4,0.1-0.5-0.1-0.7c-0.8-0.5-1.7-1-2.5-1.4
		c-0.2-0.1-0.4-0.1-0.6,0.1c-0.2,0.3-0.4,0.7-0.5,1c-0.1,0.3-0.1,0.4,0.1,0.6c0.3,0.1,0.6,0.4,0.9,0.5c0.2,0.1,0.2,0.2,0.1,0.4
		c-0.6,1-1.2,2.1-1.8,3.2c-0.5,0.9-1,1.8-1.5,2.7c-0.2,0.4-0.2,0.5,0.2,0.7c0.3,0.1,0.5,0.3,0.8,0.4c0.4,0.2,0.5,0.2,0.7-0.2
		C89,655.6,89.7,654.5,90.3,653.2z M88.9,637.1c0.6,0.4,1.3,0.1,1.6-0.4c0.4-0.6,0.1-1.3-0.4-1.6s-1.3-0.1-1.6,0.4
		C88.1,635.9,88.3,636.7,88.9,637.1z M84.2,625.5c0.5,0.3,1.3,0.1,1.5-0.4c0.3-0.5,0.1-1.2-0.4-1.5c-0.5-0.3-1.3-0.1-1.5,0.4
		C83.5,624.5,83.7,625.2,84.2,625.5z M74.7,618.2c0.5,0.3,1.2,0.1,1.5-0.4c0.3-0.5,0.1-1.2-0.4-1.5c-0.5-0.3-1.2-0.1-1.5,0.4
		C74,617.3,74.2,618,74.7,618.2z M63.6,616.3c0.2-0.5,0.1-1-0.4-1.3c-0.4-0.2-1-0.1-1.3,0.4c-0.2,0.5-0.1,1.1,0.4,1.3
		C62.7,616.9,63.3,616.8,63.6,616.3z M50.8,621.4c0.4,0.2,1,0.1,1.3-0.4c0.2-0.4,0.1-1-0.4-1.3c-0.4-0.2-1-0.1-1.3,0.4
		C50.2,620.6,50.4,621.2,50.8,621.4z M43.5,630.9c0.4,0.2,0.9,0.1,1.2-0.3c0.2-0.4,0.1-1-0.4-1.2c-0.4-0.2-0.9-0.1-1.2,0.4
		C43,630.2,43.1,630.7,43.5,630.9z M42.6,641.8c-0.4-0.2-0.8-0.1-1,0.3c-0.2,0.4-0.1,0.8,0.3,1s0.8,0.1,1-0.3
		C43.1,642.5,43,642.1,42.6,641.8z M46.4,653.7c-0.2,0.4-0.1,0.7,0.2,1c0.4,0.2,0.8,0.1,1-0.3c0.2-0.4,0.1-0.7-0.3-1
		C47,653.2,46.5,653.3,46.4,653.7z M56.1,662c0.3,0.1,0.7,0.1,0.8-0.2c0.2-0.3,0.1-0.7-0.2-0.9c-0.3-0.1-0.7-0.1-0.8,0.2
		C55.7,661.4,55.8,661.8,56.1,662z M68.4,663.7c0.3,0.1,0.6,0.1,0.7-0.2c0.1-0.2,0.1-0.6-0.2-0.7c-0.2-0.1-0.7-0.1-0.8,0.2
		C68.1,663.2,68.2,663.5,68.4,663.7z"/>
	<path class="st2" d="M51,631.3c4.5-8,14.5-11.1,22.7-6.6c8.1,4.4,11.1,14.5,6.8,22.5c-4.4,8.3-14.5,11.4-22.7,7.1
		C49.6,650,46.4,639.6,51,631.3z M77.7,646.2c0.7-1.3,0.2-3.1-1.1-3.8c-1.3-0.7-3.1-0.2-3.8,1.1c-0.7,1.3-0.2,3.1,1.1,3.8
		C75.3,648,77,647.5,77.7,646.2z"/>
	<path class="st3" d="M85.8,650.7c-0.7,1.2-1.3,2.4-2,3.6c-0.2,0.4-0.4,0.4-0.7,0.2c-0.3-0.1-0.5-0.3-0.8-0.4
		c-0.4-0.2-0.4-0.4-0.2-0.7c0.4-0.7,0.7-1.4,1.2-2.1c0.7-1.3,1.4-2.5,2.1-3.8c0.1-0.2,0.1-0.3-0.1-0.4c-0.3-0.1-0.6-0.4-0.9-0.5
		c-0.2-0.1-0.3-0.4-0.1-0.6c0.1-0.3,0.4-0.7,0.5-1c0.1-0.3,0.4-0.4,0.6-0.1c0.8,0.4,1.6,0.9,2.5,1.4c0.3,0.2,0.4,0.4,0.2,0.7
		C87.2,648.2,86.5,649.4,85.8,650.7z"/>
	<path class="st3" d="M90.3,653.2c-0.7,1.2-1.3,2.4-2.1,3.6c-0.2,0.4-0.4,0.4-0.7,0.2c-0.3-0.1-0.5-0.3-0.8-0.4
		c-0.4-0.2-0.4-0.3-0.2-0.7c0.5-0.9,1-1.8,1.5-2.7c0.6-1,1.2-2.1,1.8-3.2c0.1-0.2,0.1-0.3-0.1-0.4c-0.3-0.1-0.6-0.4-0.9-0.5
		c-0.3-0.1-0.3-0.4-0.1-0.6c0.2-0.4,0.4-0.7,0.5-1c0.1-0.2,0.3-0.3,0.6-0.1c0.8,0.4,1.7,1,2.5,1.4c0.3,0.1,0.3,0.4,0.1,0.7
		C91.7,650.8,91,652,90.3,653.2z"/>
	<path class="st4" d="M88.9,637.1c-0.6-0.4-0.8-1.1-0.4-1.6s1-0.7,1.6-0.4s0.8,1,0.4,1.6C90.2,637.2,89.5,637.3,88.9,637.1z"/>
	<path class="st4" d="M84.2,625.5c-0.5-0.3-0.7-1-0.4-1.5c0.3-0.5,1-0.7,1.5-0.4c0.5,0.3,0.7,1,0.4,1.5
		C85.5,625.6,84.8,625.8,84.2,625.5z"/>
	<path class="st4" d="M74.7,618.2c-0.5-0.3-0.7-0.9-0.4-1.5c0.3-0.5,1-0.7,1.5-0.4s0.7,1,0.4,1.5C75.8,618.4,75.2,618.5,74.7,618.2z
		"/>
	<path class="st4" d="M63.6,616.3c-0.2,0.4-0.8,0.7-1.3,0.4c-0.5-0.2-0.7-0.8-0.4-1.3c0.2-0.4,0.8-0.7,1.3-0.4
		C63.7,615.3,63.9,615.8,63.6,616.3z"/>
	<path class="st4" d="M50.8,621.4c-0.4-0.2-0.6-0.8-0.4-1.3c0.2-0.4,0.8-0.6,1.3-0.4c0.4,0.2,0.6,0.8,0.4,1.3
		C51.8,621.6,51.2,621.7,50.8,621.4z"/>
	<path class="st4" d="M43.5,630.9c-0.4-0.2-0.5-0.7-0.3-1.2c0.2-0.4,0.7-0.5,1.2-0.4s0.5,0.7,0.4,1.2
		C44.4,631,43.9,631.1,43.5,630.9z"/>
	<path class="st4" d="M42.6,641.8c0.4,0.2,0.5,0.7,0.3,1c-0.2,0.4-0.7,0.5-1,0.3c-0.4-0.2-0.5-0.7-0.3-1
		C41.8,641.8,42.2,641.6,42.6,641.8z"/>
	<path class="st4" d="M46.4,653.7c0.2-0.4,0.6-0.4,1-0.3c0.4,0.2,0.4,0.6,0.3,1c-0.2,0.4-0.7,0.5-1,0.3
		C46.3,654.4,46.1,654,46.4,653.7z"/>
	<path class="st4" d="M56.1,662c-0.3-0.1-0.4-0.6-0.2-0.9c0.1-0.3,0.5-0.4,0.8-0.2c0.3,0.1,0.4,0.6,0.2,0.9
		C56.8,662,56.4,662.1,56.1,662z"/>
	<path class="st4" d="M68.4,663.7c-0.2-0.1-0.4-0.5-0.2-0.7c0.1-0.2,0.5-0.4,0.8-0.2c0.2,0.1,0.4,0.5,0.2,0.7
		C69.1,663.8,68.7,663.8,68.4,663.7z"/>
	<path class="st4" d="M77.7,646.2c-0.7,1.3-2.4,1.8-3.8,1.1c-1.3-0.7-1.8-2.4-1.1-3.8c0.7-1.4,2.5-1.9,3.8-1.1
		C77.9,643.1,78.5,644.8,77.7,646.2z"/>
</g>
<g>
	<path class="st5" d="M359.5,148.9c-0.7,0.7-1.3,1.4-1.9,2.1c-0.1,0-0.1,0.1-0.2,0.2c-2.1,2.1-4.5,3.9-7.2,5.4
		c-5.8,3.2-12,4.6-18.5,4.1c-6.1-0.4-11.7-2.5-16.7-6.1c-2.2-1.6-4.1-3.3-5.8-5.4c-2.8-3.3-4.9-7.1-6.2-11.2
		c-1.8-5.8-2-11.6-0.7-17.5c1-4.3,2.9-8.3,5.5-11.9c1.9-2.5,4.1-4.8,6.7-6.7c5-3.7,10.5-5.9,16.7-6.4c8.4-0.7,16,1.5,22.8,6.6
		c0.2,0.2,0.4,0.4,0.8,0.5c0.8,0.8,1.6,1.4,2.4,2.2c0,0.1,0.1,0.1,0.2,0.2c1.1,1.1,2.1,2.3,3.1,3.6c3.4,4.6,5.6,9.9,6.1,15.7
		c0.9,8.7-1.3,16.6-6.5,23.7C359.9,148.4,359.7,148.6,359.5,148.9z"/>
	<path class="st6" d="M350.1,134.9c-2.3,2.6-4.7,5.2-7,7.8c-0.2,0.2-0.3,0.2-0.5,0c-1.5-1.4-3.1-2.7-4.6-4.1c-2.7-2.7-3.8-6-3.3-9.7
		c0.3-2.2,1.3-4.2,2.8-5.8c1.1-1.3,2.2-2.5,3.3-3.8c1.3-1.5,1.4-3.6,0.2-5.1c-0.7-0.9-1.6-1.5-2.6-2c-3.4-1.7-7.4-1.1-10.2,1.4
		c-3.5,3.2-4,8.6-1.1,12.3c0.5,0.7,0.3,1.4-0.2,1.7c-0.4,0.3-1,0.1-1.3-0.2c-2.9-3.5-3.3-8.8-0.9-12.6c3-5.1,9.4-7,14.7-4.3
		c1.4,0.7,2.5,1.6,3.4,2.8c1.5,2.3,1.4,5.3-0.5,7.5c-1.1,1.3-2.4,2.7-3.6,3.9c-2.8,3.2-3,7.8-0.5,11.2c0.4,0.5,0.8,1,1.4,1.5
		c0.9,0.9,1.8,1.7,2.8,2.5c0.2,0.2,0.3,0.1,0.5,0c4.1-4.6,8.3-9.3,12.5-13.9c0.2-0.2,0.2-0.3,0.4-0.4c0.4-0.3,0.9-0.2,1.3,0.1
		c0.4,0.3,0.4,0.8,0.1,1.3c0,0.1-0.1,0.2-0.2,0.3C354.6,129.8,352.4,132.3,350.1,134.9z"/>
	<path class="st6" d="M329.2,137.1c3.1,2.8,6.3,5.7,9.5,8.5c0.1,0.1,0.2,0.2,0.3,0.3c0.3,0.4,0.3,1,0,1.3c-0.4,0.4-1,0.4-1.4,0.1
		c-0.1,0-0.2-0.2-0.3-0.3c-6.2-5.6-12.4-11.1-18.6-16.7c-1.4-1.2-3.1-1.5-4.7-0.6c-0.4,0.2-0.7,0.5-1,0.8c-0.4,0.4-1,0.5-1.5,0.1
		c-0.4-0.4-0.4-1.1,0.1-1.5c2.1-2.2,5.4-2.5,7.9-0.9c0.3,0.2,0.6,0.4,0.8,0.7C323.2,131.6,326.3,134.3,329.2,137.1z"/>
</g>
<g>
	<path class="st7" d="M80.5,70.7c0.3-0.2,0.7-0.4,1-0.6c0.4-0.2,0.8-0.3,1.2-0.4c1.1-0.2,2.1-0.2,3.1-0.2c0.8,0,1.5-0.1,2.2-0.2
		c1.7-0.4,3.2-1.2,4.7-2.1c0.5-0.4,1.1-0.8,1.7-1.1c1.6-1.1,3.3-1.2,5.1-0.5c0.7,0.2,1.3,0.5,1.9,0.8c2.1,1.1,4.2,1.5,6.6,1.4
		c0.9-0.1,1.9-0.2,2.8-0.3c1.7-0.1,3.2,0.4,4.4,1.6c0.6,0.7,1.1,1.4,1.7,2.1c1,1.2,2.1,2.4,3.4,3.2c1.1,0.7,2.3,1.1,3.4,1.5
		c0.9,0.3,1.8,0.8,2.6,1.4c0.2,0.2,0.4,0.4,0.6,0.5c0.2,0.3,0.4,0.6,0.5,0.9c0.1,0.3,0.2,0.6,0.4,0.9c0.4,1.1,0.5,2.1,0.6,3.3
		c0.3,1.8,0.9,3.4,2,4.7c0.7,0.9,1.5,1.7,2.2,2.6c1.2,1.5,1.7,3.1,1.3,5c-0.2,0.8-0.5,1.5-0.8,2.3c-0.7,1.8-0.9,3.7-0.6,5.7
		c0.2,1.1,0.5,2.1,0.7,3.1c0.4,1.7,0.3,3.3-0.7,4.7c-0.5,0.8-1.3,1.5-2,2.1c-1.7,1.5-2.9,3.4-3.6,5.6c-0.2,1.1-0.5,2.1-0.8,3.1
		c-0.5,1.4-1.3,2.4-2.6,3.1c-0.8,0.5-1.8,0.7-2.8,1c-2.1,0.5-3.9,1.5-5.4,3c-0.7,0.7-1.4,1.5-2.1,2.3c-1.5,1.5-3.1,2.1-5.2,1.8
		c-0.7-0.1-1.4-0.2-2.1-0.4c-2.2-0.5-4.4-0.5-6.6,0.3c-1,0.3-1.8,0.8-2.8,1.1c-1.5,0.4-3.1,0.3-4.5-0.5c-0.7-0.4-1.2-0.8-1.8-1.4
		c-2.2-1.9-4.7-3.1-7.7-3.2c-0.6,0-1.2-0.2-1.8-0.2c-1.4-0.3-2.4-1.1-3.3-2.2c-0.5-0.7-0.8-1.5-1.2-2.4c-0.9-2.6-2.5-4.6-4.8-6.1
		c-0.6-0.4-1.2-0.8-1.8-1.4c-1.4-1.2-2.1-2.7-2.1-4.5c0-0.7,0.1-1.4,0.2-2.1c0.2-2.3-0.1-4.5-1.1-6.7c-0.5-0.9-1-1.9-1.4-2.9
		c-0.6-1.6-0.7-3.1,0.2-4.7c0.3-0.5,0.7-1.1,1.1-1.7c1.4-2,2.1-4.1,2.3-6.5c0.1-0.8-0.1-1.8,0-2.6c0-1.8,0.7-3.2,2-4.4
		c0.7-0.6,1.5-1.1,2.4-1.5c1-0.5,1.9-1.2,2.8-1.9c1.1-1,1.9-2.1,2.5-3.5c0.5-1.1,1.1-2.1,1.8-2.9C80.2,71,80.3,70.9,80.5,70.7z
		 M84.2,91.6c0.1,0.1,0.2,0.2,0.2,0.3c6,9.5,11.9,18.9,17.9,28.4c0.1,0.1,0.1,0.2,0.2,0.2c0.1,0.1,0.2,0.1,0.2,0.1
		c0.3-0.2,0.5-0.4,0.8-0.5c0.4-0.2,0.4-0.2,0.1-0.5c-6.3-9.9-12.5-20-18.8-29.9c-0.1-0.1-0.1-0.2-0.2-0.3c0.1,0.1,0.2,0.2,0.2,0.3
		c6.3,9.9,12.5,19.9,18.7,29.8c0.1,0.1,0.1,0.2,0.2,0.2c0.1,0.2,0.2,0.2,0.4,0.1c0.5-0.3,1-0.6,1.5-0.9c0.4-0.2,0.4-0.2,0.2-0.6
		c-6.7-10.8-13.5-21.4-20.2-32.1c0-0.1-0.1-0.1-0.1-0.1c-0.1-0.2-0.2-0.2-0.4-0.1c-3.3,2.1-6.6,4.1-9.8,6.2
		c-0.2,0.1-0.2,0.2-0.1,0.4c0.4,0.6,0.8,1.2,1.1,1.8c0.3,0.5,0.6,0.9,0.8,1.5c0.4,0.6,0.8,1.2,1.1,1.8c0.1,0.2,0.2,0.2,0.4,0.1
		c1.4-0.8,2.8-1.8,4.1-2.6c0.4-0.2,0.3-0.3,0.6,0.2c5.5,8.8,11,17.6,16.6,26.3c0.1,0.1,0.1,0.2,0.2,0.2c0.1,0.2,0.2,0.2,0.4,0.1
		c0.5-0.3,0.9-0.6,1.4-0.8c0.5-0.3,0.5-0.2,0.2-0.7c-6-9.5-11.9-18.9-17.8-28.3C84.2,91.7,84.2,91.7,84.2,91.6z M92.1,86.3
		c0.4,0.5,0.7,1.1,1.1,1.8c0.1,0.2,0.2,0.2,0.4,0.1c1.7-1.1,3.3-2.1,5-3.1c0.3-0.2,0.3-0.2,0.4,0.2c0.4,3.7,0.8,7.6,1.2,11.4
		c0.1,0.6,0.1,0.5,0.6,0.3c1.1-0.5,2.1-1.1,3.3-1.5c1.7-0.7,3.4-0.9,5.3-0.5c2.9,0.6,4.8,2.5,6,5.2c1.4,3.6,0,7.7-3.3,9.7
		c-0.8,0.5-1.8,0.9-2.7,1.2c-0.1,0.1-0.2,0-0.2,0.2c0.2,0.7,0.3,1.5,0.5,2.2c0.1,0.5,0.2,1.1,0.3,1.7c0.1,0.7,0.2,1.3,0.3,2
		c0.1,0.2,0.2,0.3,0.4,0.2c2.4-0.5,4.7-1.6,6.7-3.3c2.8-2.4,4.4-5.4,5-9.1c0.5-3.9-0.4-7.4-2.6-10.6c-1.2-1.8-2.8-3.2-4.7-4.2
		c-2.8-1.6-5.7-2.1-8.9-1.8c-0.2,0-0.4-0.1-0.4-0.3c-0.5-4.6-0.8-9.3-1.4-13.8c-0.1-0.4-0.1-0.4-0.4-0.2c-2,1.2-3.9,2.4-5.8,3.7
		c-2.7,1.7-5.4,3.4-8,5.1c-0.2,0.2-0.2,0.2-0.1,0.5c0.4,0.5,0.7,1.2,1.1,1.8C91.5,85.3,91.8,85.9,92.1,86.3z"/>
	<path class="st8" d="M91.2,84.9c-0.4-0.5-0.7-1.2-1.1-1.8c-0.2-0.2-0.1-0.3,0.1-0.5c2.7-1.7,5.4-3.4,8-5.1c2-1.2,3.9-2.4,5.8-3.7
		c0.3-0.2,0.3-0.2,0.4,0.2c0.5,4.6,0.9,9.3,1.4,13.8c0,0.2,0.1,0.3,0.4,0.3c3.1-0.2,6.1,0.3,8.9,1.8c1.8,1.1,3.4,2.4,4.7,4.2
		c2.3,3.2,3.1,6.7,2.6,10.6c-0.5,3.6-2.2,6.7-5,9.1c-1.9,1.7-4.2,2.8-6.7,3.3c-0.2,0.1-0.4,0-0.4-0.2c-0.1-0.7-0.2-1.3-0.3-2
		c0.1,0,0.1-0.1,0.2-0.1c2.4-0.7,4.7-1.8,6.4-3.7c4.9-5,4.7-12.2,0.3-16.8c-3.5-3.7-7.9-4.7-12.8-3.6c-0.2,0.1-0.3,0-0.3-0.2
		c-0.4-4.1-0.8-8.3-1.3-12.4c-0.1-0.5-0.1-0.5-0.5-0.2C98.4,80.3,94.8,82.6,91.2,84.9z"/>
	<path class="st8" d="M109.6,113.4c-0.2-0.7-0.3-1.5-0.5-2.2c-0.1-0.2,0.1-0.2,0.2-0.2c1-0.2,1.8-0.6,2.7-1.2
		c3.3-2.1,4.7-6.1,3.3-9.7c-1.1-2.7-3-4.6-6-5.2c-1.8-0.4-3.6-0.1-5.3,0.5c-1.1,0.5-2.2,1.1-3.3,1.5c-0.5,0.2-0.5,0.2-0.6-0.3
		c-0.4-3.7-0.8-7.6-1.2-11.4c-0.1-0.4-0.1-0.4-0.4-0.2c-1.7,1.1-3.3,2-5,3.1c-0.2,0.1-0.3,0.1-0.4-0.1c-0.4-0.5-0.7-1.2-1.1-1.8
		c2.8-1.8,5.7-3.6,8.5-5.4c0.4-0.2,0.4-0.2,0.4,0.2c0.4,4.1,0.8,8.1,1.2,12.2c0,0.2,0.1,0.3,0.3,0.2c1.1-0.5,2.1-0.8,3.2-0.9
		c5.4-0.8,10,1.7,12,6.7c1.8,4.5,0.1,9.6-4,12.5C112.5,112.4,111.2,113,109.6,113.4z"/>
	<path class="st8" d="M76.4,94.3c-0.4-0.6-0.8-1.2-1.1-1.8c-0.1-0.2-0.1-0.2,0.1-0.4c3.3-2.1,6.6-4.1,9.8-6.2
		c0.2-0.1,0.2-0.1,0.4,0.1c0,0.1,0.1,0.1,0.1,0.1c6.7,10.6,13.4,21.3,20,32c0.2,0.4,0.2,0.3-0.2,0.6c-0.5,0.3-1,0.6-1.5,0.9
		c-0.2,0.1-0.2,0.1-0.4-0.1c-0.1-0.1-0.1-0.2-0.2-0.2c-6.3-9.9-12.5-19.9-18.7-29.8c-0.1-0.1-0.1-0.2-0.2-0.3
		c-0.2-0.1-0.2,0.1-0.3,0.1C81.6,91,79,92.6,76.4,94.3z"/>
	<path class="st4" d="M109.6,113.4c1.5-0.4,2.8-0.9,4.1-1.8c4.1-2.8,5.7-7.9,4-12.5c-1.9-5-6.6-7.6-12-6.7c-1.1,0.2-2.1,0.5-3.2,0.9
		c-0.2,0.1-0.2,0.1-0.3-0.2c-0.4-4.1-0.8-8.1-1.2-12.2c-0.1-0.4-0.1-0.4-0.4-0.2c-2.8,1.8-5.7,3.6-8.5,5.4c-0.3-0.5-0.6-1-0.9-1.5
		c3.6-2.2,7.1-4.5,10.7-6.7c0.5-0.3,0.5-0.3,0.5,0.2c0.4,4.1,0.8,8.3,1.3,12.4c0,0.2,0.1,0.2,0.3,0.2c5-1.2,9.3-0.2,12.8,3.6
		c4.4,4.7,4.6,11.9-0.3,16.8c-1.8,1.8-4,3-6.4,3.7c-0.1,0-0.1,0.1-0.2,0.1C109.8,114.6,109.7,114,109.6,113.4z"/>
	<path class="st8" d="M84.2,91.6c0,0.1,0.1,0.2,0.2,0.3c6,9.5,11.9,18.9,17.8,28.3c0.3,0.5,0.3,0.4-0.2,0.7
		c-0.5,0.3-0.9,0.5-1.4,0.8c-0.2,0.1-0.2,0.1-0.4-0.1c-0.1-0.1-0.1-0.2-0.2-0.2c-5.6-8.8-11.1-17.6-16.6-26.3
		c-0.2-0.4-0.2-0.4-0.6-0.2c-1.4,0.8-2.8,1.8-4.1,2.6c-0.2,0.1-0.2,0.1-0.4-0.1c-0.4-0.6-0.8-1.2-1.1-1.8c1.5-1,3.1-1.9,4.6-2.9
		c0.7-0.4,1.4-0.8,2-1.2C83.9,91.4,84,91.4,84.2,91.6z"/>
	<path class="st4" d="M84.2,91.6c-0.1-0.2-0.2-0.1-0.3-0.1c-0.7,0.4-1.4,0.8-2,1.2c-1.5,1-3.1,1.9-4.6,2.9c-0.3-0.5-0.6-0.9-0.8-1.5
		c2.6-1.7,5.3-3.3,8-5c0.1-0.1,0.2-0.2,0.3-0.1c0.1,0.1,0.1,0.2,0.2,0.3c6.3,9.9,12.5,20,18.8,29.9c0.2,0.4,0.2,0.2-0.1,0.5
		c-0.3,0.2-0.5,0.4-0.8,0.5c-0.1,0.1-0.2,0.1-0.2-0.1c-0.1-0.1-0.1-0.2-0.2-0.2c-6-9.5-11.9-18.9-17.9-28.4
		C84.3,91.7,84.2,91.7,84.2,91.6z"/>
</g>
<g class="st9">
	<g>
		<path class="st1" d="M259.4,258.7c0.5,0,1.1,0,1.7,0c0,0,0,0,0.1,0c1.2,0.1,2.3,0.2,3.5,0.5c3.8,1,6.9,3.2,9.1,6.5
			c1.6,2.3,2.5,4.9,2.8,7.8c0,0.1,0,0.3,0,0.4c0,0.6,0,1.1,0,1.7v0.1c0,0.9-0.2,1.8-0.4,2.7c-0.8,3.7-2.7,6.7-5.6,9.1
			c-2.6,2.1-5.5,3.2-8.8,3.5c-1.9,0.2-3.9,0-5.7-0.5c-3.1-0.9-5.6-2.5-7.7-4.9c-2.3-2.6-3.6-5.6-3.9-9c-0.2-1.9-0.1-3.7,0.4-5.5
			c0.7-2.7,2-5.1,3.9-7.1c1.6-1.7,3.4-3,5.5-3.9C255.8,259.3,257.5,258.9,259.4,258.7C259.3,258.7,259.4,258.7,259.4,258.7z
			 M252.3,275c0.1,4.6,3.9,8.1,8.4,8c4.4-0.2,8-3.8,7.8-8.4c-0.2-4.4-3.8-7.9-8.2-7.8C255.7,266.9,252.2,270.6,252.3,275z
			 M271.5,274.8c0-0.7,0-1.4,0-2.1c0-0.2-0.1-0.2-0.2-0.2c-0.4,0-0.9,0-1.4,0c-0.2,0-0.2,0.1-0.2,0.2c0,0.2,0,0.4,0,0.5
			c0,0.2,0.1,0.2,0.2,0.2c0.2,0,0.3,0,0.5,0c0.1,0,0.1,0,0.1,0.1c0,0.7,0,1.4,0,2.1c0,0.4,0,0.8,0,1.1c0,0.2,0,0.3,0.2,0.2
			c0.2,0,0.3,0,0.5,0s0.3,0,0.3-0.3C271.5,276.2,271.5,275.5,271.5,274.8z M273.9,274.8c0-0.7,0-1.4,0-2c0-0.2-0.1-0.2-0.2-0.2
			c-0.5,0-0.9,0-1.4,0c-0.1,0-0.2,0.1-0.2,0.2c0,0.2,0,0.4,0,0.5c0,0.2,0.1,0.2,0.2,0.2c0.2,0,0.3,0,0.5,0c0.1,0,0.1,0,0.1,0.1
			c0,0.6,0,1.2,0,1.8c0,0.5,0,1,0,1.4c0,0.2,0,0.3,0.3,0.3c0.2,0,0.3,0,0.5,0s0.3,0,0.3-0.3C274,276.1,274,275.5,273.9,274.8z
			 M269.5,268.4c0.3,0,0.6-0.2,0.6-0.6s-0.3-0.6-0.6-0.6c-0.3,0-0.6,0.3-0.6,0.6S269.2,268.4,269.5,268.4z M264.8,264.7
			c0.3,0,0.5-0.3,0.5-0.6s-0.2-0.5-0.5-0.5s-0.5,0.3-0.5,0.6C264.2,264.4,264.5,264.7,264.8,264.7z M259.1,263.9
			c0.3,0,0.5-0.2,0.5-0.5s-0.2-0.5-0.5-0.5s-0.5,0.2-0.5,0.5C258.6,263.7,258.8,263.9,259.1,263.9z M254,265.7
			c0-0.3-0.2-0.5-0.5-0.5c-0.2,0-0.5,0.2-0.5,0.5s0.2,0.5,0.5,0.5S254,266,254,265.7z M249.9,270.9c0.2,0,0.4-0.2,0.4-0.4
			c0-0.2-0.2-0.4-0.4-0.4s-0.4,0.2-0.4,0.4C249.4,270.7,249.6,270.9,249.9,270.9z M249,276.6c0.2,0,0.4-0.2,0.4-0.4
			c0-0.2-0.2-0.4-0.4-0.4s-0.4,0.2-0.4,0.4C248.6,276.5,248.8,276.6,249,276.6z M251.3,281.4c-0.2,0-0.4,0.2-0.4,0.4
			c0,0.2,0.2,0.4,0.4,0.4s0.4-0.2,0.4-0.4C251.6,281.6,251.5,281.4,251.3,281.4z M255.7,285.5c0,0.2,0.2,0.3,0.3,0.3
			c0.2,0,0.3-0.2,0.3-0.4c0-0.2-0.2-0.3-0.4-0.3C255.8,285.1,255.6,285.3,255.7,285.5z M261.7,286.6c0.2,0,0.3-0.1,0.3-0.3
			c0-0.2-0.1-0.3-0.3-0.3c-0.2,0-0.3,0.1-0.3,0.3C261.4,286.5,261.6,286.6,261.7,286.6z M267.3,284.4c0.2,0,0.3-0.1,0.3-0.3
			c0-0.1-0.1-0.3-0.3-0.3s-0.3,0.1-0.3,0.3S267.2,284.4,267.3,284.4z"/>
		<path class="st2" d="M252.3,275c0-4.4,3.4-8.1,7.9-8.2c4.5-0.1,8.1,3.4,8.2,7.8c0.1,4.5-3.4,8.2-7.8,8.4
			C256.1,283.2,252.4,279.6,252.3,275z M267,274.9c0-0.7-0.6-1.4-1.4-1.3c-0.7,0-1.4,0.6-1.3,1.4c0,0.7,0.6,1.4,1.4,1.3
			C266.4,276.2,267,275.6,267,274.9z"/>
		<path class="st3" d="M271.5,274.8c0,0.7,0,1.3,0,2c0,0.2,0,0.3-0.3,0.3c-0.2,0-0.3,0-0.5,0s-0.2-0.1-0.2-0.2c0-0.4,0-0.8,0-1.1
			c0-0.7,0-1.4,0-2.1c0-0.1,0-0.1-0.1-0.1c-0.2,0-0.3,0-0.5,0c-0.1,0-0.2-0.1-0.2-0.2c0-0.2,0-0.4,0-0.5c0-0.2,0.1-0.2,0.2-0.2
			c0.5,0,0.9,0,1.4,0c0.2,0,0.2,0.1,0.2,0.2C271.5,273.5,271.5,274.1,271.5,274.8z"/>
		<path class="st3" d="M273.9,274.8c0,0.7,0,1.3,0,2c0,0.2,0,0.3-0.3,0.3c-0.2,0-0.3,0-0.5,0s-0.3,0-0.3-0.3c0-0.5,0-1,0-1.4
			c0-0.6,0-1.2,0-1.8c0-0.1,0-0.1-0.1-0.1c-0.2,0-0.3,0-0.5,0s-0.2-0.1-0.2-0.2c0-0.2,0-0.4,0-0.5s0.1-0.2,0.2-0.2
			c0.5,0,0.9,0,1.4,0c0.2,0,0.2,0.1,0.2,0.2C273.9,273.4,273.9,274.1,273.9,274.8z"/>
		<path class="st4" d="M269.5,268.4c-0.3,0-0.6-0.3-0.6-0.6c0-0.3,0.3-0.6,0.6-0.6c0.3,0,0.6,0.2,0.6,0.6
			C270.1,268.1,269.8,268.4,269.5,268.4z"/>
		<path class="st4" d="M264.8,264.7c-0.3,0-0.5-0.2-0.6-0.5s0.2-0.5,0.5-0.6c0.3,0,0.5,0.2,0.5,0.5
			C265.3,264.4,265.1,264.7,264.8,264.7z"/>
		<path class="st4" d="M259.1,263.9c-0.3,0-0.5-0.2-0.5-0.5s0.2-0.5,0.5-0.5s0.5,0.2,0.5,0.5C259.6,263.7,259.3,263.9,259.1,263.9z"
			/>
		<path class="st4" d="M254,265.7c0,0.2-0.2,0.5-0.4,0.5c-0.3,0-0.5-0.2-0.5-0.5c0-0.2,0.2-0.5,0.5-0.5
			C253.8,265.3,254,265.5,254,265.7z"/>
		<path class="st4" d="M249.9,270.9c-0.2,0-0.4-0.2-0.4-0.4c0-0.2,0.2-0.4,0.4-0.4s0.4,0.2,0.4,0.4
			C250.3,270.7,250.1,270.9,249.9,270.9z"/>
		<path class="st4" d="M249,276.6c-0.2,0-0.4-0.2-0.4-0.4c0-0.2,0.2-0.4,0.4-0.4s0.4,0.2,0.4,0.4C249.5,276.4,249.3,276.6,249,276.6
			z"/>
		<path class="st4" d="M251.3,281.4c0.2,0,0.4,0.2,0.4,0.4c0,0.2-0.2,0.4-0.4,0.4s-0.4-0.2-0.4-0.4
			C250.9,281.6,251.1,281.4,251.3,281.4z"/>
		<path class="st4" d="M255.7,285.5c0-0.2,0.1-0.3,0.3-0.4c0.2,0,0.3,0.1,0.4,0.3c0,0.2-0.2,0.4-0.3,0.4
			C255.8,285.8,255.6,285.7,255.7,285.5z"/>
		<path class="st4" d="M261.7,286.6c-0.2,0-0.3-0.2-0.3-0.3c0-0.2,0.1-0.3,0.3-0.3c0.2,0,0.3,0.2,0.3,0.3
			C262,286.5,261.9,286.6,261.7,286.6z"/>
		<path class="st4" d="M267.3,284.4c-0.1,0-0.3-0.1-0.3-0.3c0-0.1,0.1-0.3,0.3-0.3c0.1,0,0.3,0.1,0.3,0.3
			C267.6,284.3,267.5,284.4,267.3,284.4z"/>
		<path class="st4" d="M267,274.9c0,0.7-0.6,1.4-1.3,1.4c-0.7,0-1.4-0.6-1.4-1.3c0-0.8,0.6-1.4,1.3-1.4
			C266.4,273.5,267,274.1,267,274.9z"/>
	</g>
	<g>
		<path class="st5" d="M202.1,291c-0.5,0-1,0-1.4,0h-0.1c-1.5-0.1-2.9-0.3-4.4-0.8c-3.1-1-5.7-2.8-7.7-5.3c-1.9-2.4-3-5.1-3.4-8.1
			c-0.2-1.3-0.1-2.6,0-3.9c0.3-2.1,0.9-4.1,2-6c1.5-2.6,3.5-4.6,6.1-6.1c1.9-1.1,4-1.8,6.2-2c1.6-0.2,3.1-0.1,4.7,0.2
			c3,0.6,5.7,1.8,7.9,3.9c3.1,2.8,4.8,6.3,5.2,10.5c0,0.2,0,0.3,0.1,0.5c0,0.5,0,1.1,0,1.6v0.1c0,0.8-0.1,1.6-0.3,2.3
			c-0.5,2.8-1.7,5.3-3.6,7.5c-2.8,3.3-6.4,5.1-10.8,5.6C202.4,290.9,202.2,290.9,202.1,291z M204,282.8c1.7,0,3.4-0.1,5.1-0.1
			c0.1,0,0.1,0,0.2,0c0.2-0.1,0.4-0.2,0.4-0.5s-0.1-0.4-0.4-0.5c-0.1,0-0.2,0-0.3,0c-3.1,0-6.2,0.1-9.2,0.2c-0.1,0-0.2,0-0.2-0.2
			c0-0.6,0-1.2,0-1.8c0-0.3,0-0.7,0.1-1c0.4-2,2.2-3.5,4.3-3.6c0.9,0,1.7,0,2.6,0c1.4,0,2.6-1,2.9-2.3c0.2-0.7,0.1-1.5-0.1-2.2
			c-0.8-2.8-3.6-4.5-6.5-3.9c-2.2,0.5-4,2.3-4.3,4.6c0,0.2,0.1,0.5,0.3,0.5c0.3,0.1,0.6,0,0.7-0.5c0.4-2.3,2.5-4,4.8-3.8
			c1.9,0.1,3.4,1.4,4,3.2c0.2,0.5,0.3,1.1,0.1,1.6c-0.2,1-1,1.6-1.9,1.6c-0.8,0-1.6,0-2.5,0c-1.1,0-2.1,0.3-3,0.9
			c-1.5,1.1-2.4,2.6-2.4,4.5c0,1,0,2,0,3.1c0,0.1,0,0.2,0.2,0.2C200.5,282.9,202.3,282.9,204,282.8z M196.2,276c0-2-0.1-4-0.1-6
			c0-0.2,0-0.3,0-0.5c-0.2-1.5-1.5-2.6-3-2.6c-0.3,0-0.5,0.2-0.6,0.5c0,0.3,0.2,0.5,0.5,0.5c0.2,0,0.5,0,0.7,0.1
			c0.8,0.3,1.3,1,1.4,1.9c0.1,4.1,0.1,8.2,0.2,12.4c0,0.1,0,0.1,0,0.2c0,0.3,0.2,0.5,0.5,0.5s0.5-0.2,0.5-0.4c0-0.1,0-0.1,0-0.2
			C196.3,280.2,196.2,278.1,196.2,276z"/>
		<path class="st6" d="M204,282.8c-1.7,0-3.4,0.1-5.2,0.1c-0.1,0-0.2,0-0.2-0.2c0-1-0.1-2,0-3.1c0.1-1.9,0.9-3.4,2.4-4.5
			c0.9-0.6,1.9-0.9,3-0.9c0.8,0,1.6,0,2.5,0c1,0,1.8-0.7,1.9-1.6c0.1-0.6,0-1.1-0.1-1.6c-0.5-1.8-2.1-3.1-4-3.2
			c-2.3-0.2-4.5,1.5-4.8,3.8c-0.1,0.4-0.4,0.6-0.7,0.5c-0.2-0.1-0.4-0.3-0.3-0.5c0.3-2.2,2.1-4.1,4.3-4.6c2.9-0.6,5.7,1.1,6.5,3.9
			c0.2,0.7,0.3,1.4,0.1,2.2c-0.3,1.4-1.5,2.3-2.9,2.3c-0.9,0-1.7,0-2.6,0c-2.1,0.1-3.8,1.6-4.3,3.6c-0.1,0.3-0.1,0.7-0.1,1
			c0,0.6,0,1.2,0,1.8c0,0.1,0,0.1,0.2,0.2c3.1,0,6.2-0.1,9.2-0.2c0.1,0,0.2,0,0.3,0c0.2,0.1,0.4,0.3,0.4,0.5s-0.2,0.4-0.4,0.5
			c-0.1,0-0.1,0-0.2,0C207.4,282.8,205.7,282.8,204,282.8z"/>
		<path class="st6" d="M196.2,276c0,2.1,0.1,4.2,0.1,6.3c0,0.1,0,0.1,0,0.2c0,0.2-0.2,0.4-0.5,0.4s-0.5-0.2-0.5-0.5
			c0-0.1,0-0.1,0-0.2c-0.1-4.1-0.1-8.2-0.2-12.4c0-0.9-0.5-1.6-1.4-1.9c-0.2-0.1-0.4-0.1-0.7-0.1s-0.5-0.2-0.5-0.5s0.2-0.5,0.6-0.5
			c1.5,0,2.7,1.1,3,2.6c0,0.2,0,0.3,0,0.5C196.1,272.1,196.2,274,196.2,276z"/>
	</g>
	<g>
		<path class="st7" d="M139,258.8c0.2,0,0.4,0,0.5,0c0.2,0,0.4,0.1,0.6,0.1c0.5,0.1,0.9,0.4,1.3,0.6c0.3,0.2,0.6,0.3,0.9,0.4
			c0.8,0.3,1.6,0.3,2.4,0.3c0.3,0,0.6,0,0.9,0c0.9,0,1.6,0.3,2.1,1c0.2,0.3,0.4,0.5,0.5,0.8c0.5,0.9,1.3,1.6,2.3,2.1
			c0.4,0.2,0.8,0.4,1.2,0.6c0.7,0.4,1.2,0.9,1.4,1.7c0.1,0.4,0.1,0.8,0.2,1.2c0.1,0.7,0.3,1.4,0.6,2.1c0.3,0.5,0.6,1,1,1.4
			c0.3,0.3,0.5,0.7,0.7,1.2c0,0.1,0.1,0.3,0.1,0.4c0,0.2,0,0.3,0,0.5c0,0.1,0,0.3-0.1,0.5c-0.1,0.5-0.3,1-0.5,1.4
			c-0.3,0.8-0.4,1.6-0.4,2.4c0,0.5,0.2,1,0.3,1.6c0.1,0.9-0.1,1.6-0.7,2.3c-0.3,0.3-0.6,0.5-0.9,0.7c-0.7,0.6-1.3,1.3-1.6,2.1
			c-0.2,0.5-0.3,1-0.5,1.4c-0.2,0.8-0.7,1.4-1.4,1.7c-0.4,0.2-0.9,0.3-1.3,0.4c-1,0.2-2,0.6-2.8,1.4c-0.4,0.3-0.7,0.7-1.1,1
			c-0.5,0.4-1.1,0.7-1.8,0.6c-0.5,0-0.9-0.2-1.4-0.3c-0.9-0.3-1.9-0.4-2.9-0.1c-0.5,0.1-0.9,0.3-1.4,0.4c-0.9,0.2-1.8,0.1-2.5-0.5
			c-0.3-0.2-0.5-0.4-0.7-0.7c-0.8-0.7-1.6-1.2-2.7-1.4c-0.5-0.1-0.9-0.1-1.4-0.3c-0.7-0.2-1.3-0.6-1.7-1.3c-0.2-0.3-0.3-0.6-0.4-1
			c-0.4-1.3-1.1-2.4-2.3-3.1c-0.2-0.1-0.5-0.4-0.7-0.5c-0.5-0.4-0.7-1-0.8-1.7c0-0.4,0-0.8,0.1-1.2c0.2-1.2,0.1-2.4-0.4-3.6
			c-0.1-0.3-0.3-0.6-0.4-1c-0.3-0.8-0.2-1.6,0.2-2.3c0.2-0.3,0.4-0.5,0.6-0.8c0.7-0.9,1-1.8,1.1-2.9c0-0.5,0.1-1,0.2-1.5
			c0.1-0.8,0.5-1.4,1.2-1.8c0.3-0.2,0.5-0.3,0.8-0.4c1-0.5,1.8-1.1,2.5-2c0.2-0.3,0.4-0.7,0.6-1c0.4-0.7,1-1.1,1.8-1.3
			c0.4-0.1,0.9,0,1.3,0c0.5,0,1,0,1.5-0.1c0.7-0.1,1.3-0.4,1.8-0.8c0.5-0.3,0.9-0.6,1.4-0.7C138.8,258.9,138.9,258.8,139,258.8z
			 M135.4,268c0,0.1,0,0.1,0,0.2c0.1,5.2,0.2,10.4,0.3,15.6v0.1c0,0.1,0,0.1,0.1,0.1c0.2,0,0.3,0,0.5,0s0.2,0,0.2-0.2
			c-0.1-5.5-0.2-10.9-0.3-16.4c0-0.1,0-0.1,0-0.2c0,0,0,0.1,0,0.2c0.1,5.4,0.2,10.9,0.3,16.3v0.1c0,0.1,0,0.1,0.1,0.1
			c0.3,0,0.5,0,0.8,0c0.2,0,0.2,0,0.2-0.2c-0.1-5.8-0.2-11.7-0.3-17.5v-0.1c0-0.1,0-0.1-0.1-0.1c-1.8,0-3.6,0.1-5.4,0.1
			c-0.1,0-0.1,0-0.1,0.2c0,0.3,0,0.7,0,1s0,0.5,0,0.8s0,0.7,0,1c0,0.1,0,0.1,0.1,0.1c0.8,0,1.5,0,2.3-0.1c0.2,0,0.2,0,0.2,0.2
			c0.1,4.8,0.2,9.6,0.3,14.4v0.1c0,0.1,0,0.1,0.1,0.1c0.3,0,0.5,0,0.8,0s0.2,0,0.2-0.2c-0.1-5.2-0.2-10.4-0.3-15.5
			C135.4,268.1,135.4,268,135.4,268z M139.9,267.8c0,0.3,0,0.6,0,1c0,0.1,0,0.1,0.1,0.1c0.9,0,1.8,0,2.7,0c0.2,0,0.2,0,0.1,0.1
			c-0.8,1.6-1.5,3.2-2.2,4.8c-0.1,0.3-0.1,0.2,0.2,0.3c0.6,0.1,1.1,0.1,1.7,0.2c0.8,0.1,1.6,0.5,2.2,1c1,1,1.3,2.2,1.1,3.5
			c-0.3,1.8-1.8,3-3.6,3.1c-0.5,0-0.9-0.1-1.4-0.2c-0.1,0-0.1-0.1-0.1,0c-0.1,0.3-0.2,0.7-0.3,1c-0.1,0.2-0.2,0.5-0.3,0.8
			s-0.2,0.6-0.3,0.9c0,0.1,0,0.2,0.1,0.2c1.1,0.4,2.3,0.5,3.4,0.3c1.7-0.3,3.1-1.1,4.2-2.4c1.2-1.4,1.6-3,1.5-4.8
			c-0.1-1-0.3-1.9-0.8-2.8c-0.7-1.3-1.8-2.2-3.1-2.9c-0.1-0.1-0.1-0.1-0.1-0.2c0.9-1.9,1.9-3.9,2.8-5.8c0.1-0.2,0.1-0.2-0.1-0.2
			c-1.1,0-2.2,0-3.2,0.1c-1.5,0-3,0.1-4.4,0.1c-0.1,0-0.2,0-0.2,0.2c0,0.3,0,0.6,0,1C139.9,267.3,139.9,267.5,139.9,267.8z"/>
		<path class="st8" d="M139.9,267c0-0.3,0-0.6,0-1c0-0.1,0-0.1,0.2-0.2c1.5,0,2.9,0,4.4-0.1c1.1,0,2.2,0,3.2-0.1
			c0.2,0,0.2,0,0.1,0.2c-0.9,1.9-1.8,3.9-2.8,5.8c-0.1,0.1,0,0.1,0.1,0.2c1.3,0.7,2.3,1.6,3.1,2.9c0.5,0.9,0.8,1.8,0.8,2.8
			c0.1,1.8-0.4,3.4-1.5,4.8c-1.1,1.3-2.5,2.1-4.2,2.4c-1.2,0.2-2.3,0.1-3.4-0.3c-0.1,0-0.1-0.1-0.1-0.2c0.1-0.3,0.2-0.6,0.3-0.9h0.1
			c1.1,0.3,2.3,0.4,3.4,0.1c3.1-0.8,4.8-3.7,4.1-6.6c-0.5-2.3-2-3.8-4.2-4.5c-0.1,0-0.1-0.1-0.1-0.2c0.8-1.7,1.6-3.5,2.5-5.2
			c0.1-0.2,0.1-0.2-0.1-0.2C143.8,266.9,141.8,267,139.9,267z"/>
		<path class="st8" d="M140.4,282.7c0.1-0.3,0.2-0.7,0.3-1c0-0.1,0.1-0.1,0.1,0c0.5,0.1,0.9,0.2,1.4,0.2c1.8,0,3.3-1.3,3.6-3.1
			c0.2-1.3-0.1-2.5-1.1-3.5c-0.6-0.6-1.4-0.9-2.2-1c-0.6-0.1-1.1-0.1-1.7-0.2c-0.3,0-0.3,0-0.2-0.3c0.7-1.6,1.5-3.2,2.2-4.8
			c0.1-0.2,0.1-0.2-0.1-0.1c-0.9,0-1.8,0-2.7,0c-0.1,0-0.1,0-0.1-0.1c0-0.3,0-0.6,0-1c1.6,0,3.1-0.1,4.7-0.1c0.2,0,0.2,0,0.1,0.1
			c-0.8,1.7-1.6,3.4-2.4,5.1c0,0.1-0.1,0.1,0.1,0.2c0.5,0.1,1,0.2,1.5,0.4c2.3,0.9,3.6,3.1,3.2,5.5c-0.4,2.2-2.3,3.9-4.6,4
			C141.7,283.1,141,283,140.4,282.7z"/>
		<path class="st8" d="M131.7,267.2c0-0.3,0-0.7,0-1c0-0.1,0-0.1,0.1-0.2c1.8,0,3.6-0.1,5.4-0.1c0.1,0,0.1,0,0.1,0.1v0.1
			c0.1,5.8,0.2,11.7,0.3,17.5c0,0.2,0,0.2-0.2,0.2c-0.3,0-0.5,0-0.8,0c-0.1,0-0.1,0-0.1-0.1s0-0.1,0-0.1c-0.1-5.4-0.2-10.9-0.3-16.3
			c0-0.1,0-0.1,0-0.2s-0.1,0-0.1,0C134.6,267.1,133.1,267.1,131.7,267.2z"/>
		<path class="st4" d="M140.4,282.7c0.7,0.2,1.4,0.3,2,0.2c2.3-0.1,4.2-1.7,4.6-4c0.4-2.4-0.8-4.6-3.2-5.5c-0.5-0.2-1-0.3-1.5-0.4
			c-0.1,0-0.1,0-0.1-0.2c0.8-1.7,1.6-3.4,2.4-5.1c0.1-0.2,0.1-0.2-0.1-0.1c-1.6,0-3.1,0.1-4.7,0.1c0-0.3,0-0.5,0-0.8
			c1.9,0,3.9-0.1,5.9-0.1c0.3,0,0.3,0,0.1,0.2c-0.8,1.7-1.6,3.5-2.5,5.2c-0.1,0.1,0,0.1,0.1,0.2c2.3,0.7,3.8,2.2,4.2,4.5
			c0.6,2.9-1,5.8-4.1,6.6c-1.2,0.3-2.3,0.2-3.4-0.1H140C140.1,283.3,140.3,283,140.4,282.7z"/>
		<path class="st8" d="M135.4,268c0,0,0,0.1,0,0.2c0.1,5.2,0.2,10.4,0.3,15.5c0,0.3,0,0.2-0.2,0.2c-0.3,0-0.5,0-0.8,0
			c-0.1,0-0.1,0-0.1-0.1s0-0.1,0-0.1c-0.1-4.8-0.2-9.6-0.3-14.4c0-0.2,0-0.2-0.2-0.2c-0.8,0-1.5,0-2.3,0.1c-0.1,0-0.1,0-0.1-0.1
			c0-0.3,0-0.7,0-1c0.9,0,1.7,0,2.5,0c0.4,0,0.7,0,1.1,0C135.4,267.9,135.4,267.9,135.4,268z"/>
		<path class="st4" d="M135.4,268c0-0.1-0.1-0.1-0.1-0.1c-0.4,0-0.7,0-1.1,0c-0.9,0-1.7,0-2.5,0c0-0.3,0-0.5,0-0.8
			c1.4,0,2.9-0.1,4.4-0.1c0.1,0,0.1,0,0.1,0c0,0.1,0,0.1,0,0.2c0.1,5.5,0.2,10.9,0.3,16.4c0,0.2,0,0.2-0.2,0.2s-0.3,0-0.5,0
			c-0.1,0-0.1,0-0.1-0.1v-0.1C135.6,278.4,135.5,273.2,135.4,268C135.5,268.1,135.4,268,135.4,268z"/>
	</g>
</g>
<g id="c">
	<g>
		<path class="st7" d="M378.3,653.2c-2.5-4.1-5.9-7.6-9.1-11.7c1.5-2.5,3.4-5.6,5.1-8.7c0.9-1.6,1.1-3.3-0.7-4.3
			c-1.8-1-3.3-0.1-4.4,1.5c-0.4,0.6-0.7,1.2-1.1,1.8c-1.5,2.5-3,5-4.4,7.5c-10.1-4.3-19.8-3.6-29.2,1.3c-0.6-1-1.2-1.7-1.7-2.6
			c-1.5-2.6-3.1-5.3-4.6-8c-1-1.7-2.5-2.6-4.3-1.7c-2,1-1.8,2.7-0.9,4.5c0.3,0.6,0.7,1.2,1,1.8c1.9,3.1,3.7,6.3,5.7,9.6
			c-0.9,0.8-1.7,1.4-2.3,2.1c-4.3,4.5-7,9.9-8.3,16.1c-0.4,2,0.1,3.6,2.3,3.9c2,0.3,3.1-0.7,3.5-2.7c0.3-1.6,0.9-3.2,1.4-4.7
			c4.3-11.4,15.3-17.3,25.5-16.4c13,1.1,22.1,9.6,24,21.7c1.6,10-3.2,15.7-13.3,15.7c-5.3,0-10.7,0-16,0c-2.7,0-4.1,1.1-4,3.1
			c0.2,2.4,1.7,2.9,3.9,2.8c5.9-0.1,11.7,0,17.6,0c7.2,0,10.4-2.8,10.4-2.8c3.3-2.8,6.2-5.9,7.1-10.3
			C383,665.7,381.8,659.1,378.3,653.2L378.3,653.2z"/>
		<path class="st7" d="M337.3,656.7c-2.1,0-3.8,1.8-3.8,3.9c0,2.1,1.7,3.9,3.8,3.9c2.1,0,3.8-1.6,3.9-3.8
			C341.2,658.5,339.5,656.7,337.3,656.7z"/>
		<path class="st7" d="M361.7,656.7c-2.2-0.1-4,1.7-4,3.9c0,2.1,1.7,3.8,3.8,3.9c2.1,0,3.8-1.7,3.9-3.8
			C365.4,658.6,363.8,656.9,361.7,656.7z"/>
		<path class="st7" d="M332.7,668.2l-3.5,8.3h2.2l0.6-1.5h3.5l0.6,1.5h2.2l-3.5-8.3H332.7z M332.7,673.3l1.1-2.7l1.1,2.7H332.7z"/>
		<path class="st7" d="M346.7,674.3c0.5-0.5,0.8-1.2,0.8-1.9c0-0.8-0.3-1.4-0.8-2c-0.5-0.5-1.1-0.8-1.9-0.8c-0.7,0-1.4,0.3-1.9,0.8
			c-0.5,0.5-0.8,1.2-0.8,2c0,0.8,0.3,1.4,0.8,1.9c0.5,0.5,1.1,0.8,1.9,0.8C345.6,675.1,346.2,674.9,346.7,674.3L346.7,674.3z
			 M342.7,672.4c0-0.6,0.2-1.2,0.6-1.6c0.4-0.4,0.9-0.6,1.5-0.6s1.1,0.2,1.5,0.6c0.4,0.4,0.6,0.9,0.6,1.6c0,0.6-0.2,1.2-0.6,1.6
			c-0.4,0.4-0.9,0.6-1.5,0.6c-0.6,0-1.1-0.2-1.5-0.6C342.9,673.6,342.7,673,342.7,672.4z"/>
		<path class="st7" d="M348.2,675.7c0.9-0.9,1.4-2,1.4-3.3c0-1.3-0.5-2.4-1.4-3.3c-0.9-0.9-2-1.3-3.3-1.3s-2.4,0.5-3.3,1.3
			c-0.9,0.9-1.4,2-1.4,3.3c0,1.3,0.5,2.4,1.4,3.3c0.9,0.9,2,1.3,3.3,1.3C346.1,677,347.3,676.5,348.2,675.7z M340.7,672.4
			c0-1.2,0.4-2.1,1.2-2.9c0.8-0.8,1.8-1.2,3-1.2c1.2,0,2.1,0.4,3,1.2c0.8,0.8,1.2,1.8,1.2,2.9c0,1.1-0.4,2.1-1.2,2.9
			c-0.8,0.8-1.8,1.2-3,1.2s-2.2-0.4-3-1.2C341,674.5,340.7,673.5,340.7,672.4z"/>
		<path class="st7" d="M356.8,674.8c-0.2,0.2-0.5,0.2-0.9,0.2c-0.9,0-1.4-0.4-1.6-1.2l-2.1,0.4c0.1,0.8,0.5,1.4,1.2,1.9
			c0.7,0.4,1.5,0.7,2.5,0.7c1,0,1.8-0.2,2.4-0.7c0.7-0.5,1-1.1,1-2c0-1.3-0.8-2.1-2.3-2.4l-1.7-0.4c-0.4-0.1-0.7-0.3-0.7-0.7
			c0-0.2,0.1-0.4,0.3-0.6c0.2-0.2,0.5-0.2,0.8-0.2c0.3,0,0.7,0.1,0.9,0.3c0.3,0.2,0.4,0.5,0.5,0.9l2-0.4c-0.2-0.8-0.5-1.3-1.2-1.8
			c-0.6-0.4-1.4-0.6-2.3-0.6c-1,0-1.8,0.2-2.4,0.7c-0.6,0.5-0.9,1.1-0.9,1.9c0,1.3,0.7,2.1,2.2,2.4l1.7,0.4c0.3,0.1,0.5,0.1,0.6,0.3
			s0.2,0.3,0.2,0.5C357.1,674.4,357,674.6,356.8,674.8L356.8,674.8z"/>
		<path class="st7" d="M362.1,676.8h2.6v-2.5h1.7c1,0,1.9-0.3,2.5-0.9c0.6-0.6,0.9-1.4,0.9-2.3c0-0.9-0.3-1.7-0.9-2.3
			c-0.6-0.6-1.4-0.9-2.4-0.9h-4.4L362.1,676.8L362.1,676.8z M362.7,668.5h3.8c0.9,0,1.5,0.2,2,0.7c0.5,0.5,0.7,1.1,0.7,1.9
			c0,0.8-0.3,1.4-0.8,1.9c-0.5,0.5-1.2,0.7-2.1,0.7h-2.2v2.5h-1.5L362.7,668.5L362.7,668.5z"/>
		<path class="st7" d="M367.4,672.2c0.3-0.3,0.4-0.6,0.4-1c0-0.4-0.1-0.8-0.4-1c-0.3-0.3-0.7-0.4-1.1-0.4h-2.1v2.8h2.1
			C366.7,672.6,367.1,672.4,367.4,672.2L367.4,672.2z M364.7,670.2h1.6c0.3,0,0.6,0.1,0.8,0.2c0.2,0.2,0.3,0.4,0.3,0.6
			c0,0.3-0.1,0.5-0.3,0.7c-0.2,0.2-0.4,0.2-0.8,0.2h-1.6L364.7,670.2L364.7,670.2z"/>
	</g>
</g>
</svg>
