<?xml version="1.0" encoding="utf-8"?>
<!-- Generator: Adobe Illustrator 26.5.0, SVG Export Plug-In . SVG Version: 6.00 Build 0)  -->
<svg version="1.1" id="Capa_1" xmlns="http://www.w3.org/2000/svg" xmlns:xlink="http://www.w3.org/1999/xlink" x="0px" y="0px"
	 viewBox="0 0 400 700" style="enable-background:new 0 0 400 700;" xml:space="preserve">
<style type="text/css">
	.st0{fill:none;stroke:#3DDB84;stroke-width:2;stroke-miterlimit:10;}
	.st1{fill:#083042;}
	.st2{fill:#3DDA84;}
	.st3{fill:#F46634;}
	.st4{fill:#FEFEFE;}
	.st5{fill:#3DDB84;}
	.st6{fill:#FCFEFD;}
	.st7{fill:#3DDB83;}
	.st8{fill:#083143;}
	.st9{opacity:0;}
</style>
<circle class="st0" cx="465.6" cy="272.5" r="133.5"/>
<circle class="st0" cx="-10.2" cy="14" r="133.5"/>
<circle class="st0" cx="11.3" cy="759.2" r="133.5"/>
<circle class="st0" cx="478.9" cy="639.6" r="133.5"/>
<g>
	<path class="st1" d="M85.9,598.4c1.4,0.7,2.8,1.6,4.1,2.3c0,0.1,0.1,0.1,0.1,0.1c2.8,1.8,5.4,3.8,7.7,6.1
		c7.9,7.9,12.4,17.5,13.3,28.6c0.7,8-0.7,15.6-4.1,22.8c-0.1,0.3-0.4,0.6-0.4,0.9c-0.7,1.4-1.6,2.8-2.3,4.2c-0.1,0-0.1,0.1-0.2,0.2
		c-1.4,2.2-2.9,4.2-4.7,6.1c-7.2,7.8-16,12.6-26.4,14.3c-9.1,1.5-18,0.3-26.4-3.6c-5-2.3-9.5-5.4-13.3-9.3
		c-6.3-6.3-10.3-14-12.2-22.7c-2-9.5-0.9-18.6,2.9-27.5c2.1-4.9,5-9.2,8.6-13c5.4-5.7,11.9-9.7,19.4-12.1c6.1-2,12.5-2.5,18.9-1.8
		c5.1,0.6,9.9,2,14.5,4.3C85.8,598.4,85.8,598.6,85.9,598.4z M45.8,628.5c-6.2,11.3-1.9,25.2,9.3,31.2c11.1,5.8,24.8,1.7,30.7-9.6
		c5.7-10.9,1.8-24.5-9.2-30.5C65.5,613.6,51.8,617.7,45.8,628.5z M93,654.8c0.9-1.7,1.9-3.4,2.8-5.1c0.3-0.5,0.2-0.7-0.3-0.9
		c-1.1-0.6-2.2-1.2-3.4-1.9c-0.4-0.2-0.6-0.1-0.8,0.2c-0.3,0.4-0.5,0.9-0.7,1.3c-0.2,0.4-0.1,0.6,0.2,0.8c0.4,0.2,0.8,0.5,1.2,0.7
		c0.3,0.1,0.3,0.3,0.1,0.5c-0.9,1.7-1.9,3.4-2.8,5.1c-0.5,0.9-1.1,1.9-1.6,2.8c-0.3,0.5-0.3,0.7,0.3,0.9c0.4,0.2,0.7,0.4,1.1,0.6
		c0.5,0.3,0.7,0.3,1-0.3C91.2,658.1,92.1,656.4,93,654.8z M99.1,658.2c0.9-1.7,1.9-3.4,2.8-5c0.3-0.5,0.2-0.7-0.2-0.9
		c-1.1-0.7-2.3-1.3-3.4-1.9c-0.3-0.2-0.6-0.1-0.8,0.2c-0.3,0.4-0.5,0.9-0.7,1.4c-0.2,0.4-0.1,0.6,0.2,0.8c0.4,0.2,0.8,0.5,1.2,0.7
		c0.3,0.1,0.3,0.3,0.1,0.5c-0.8,1.4-1.6,2.8-2.4,4.3c-0.7,1.2-1.4,2.4-2,3.6c-0.3,0.5-0.3,0.7,0.3,1c0.4,0.2,0.7,0.4,1.1,0.6
		c0.5,0.3,0.7,0.3,1-0.3C97.3,661.5,98.2,659.9,99.1,658.2z M97.1,636.3c0.8,0.5,1.8,0.2,2.2-0.6c0.5-0.8,0.1-1.8-0.6-2.2
		s-1.8-0.1-2.2,0.6C96,634.8,96.3,635.8,97.1,636.3z M90.8,620.7c0.7,0.4,1.7,0.1,2.1-0.6c0.4-0.7,0.1-1.6-0.6-2s-1.7-0.1-2.1,0.6
		C89.8,619.3,90.1,620.3,90.8,620.7z M77.9,610.8c0.7,0.4,1.6,0.1,2-0.5c0.4-0.7,0.1-1.6-0.5-2c-0.7-0.4-1.6-0.1-2,0.5
		C76.9,609.6,77.2,610.5,77.9,610.8z M62.8,608.2c0.3-0.7,0.1-1.4-0.5-1.8c-0.6-0.3-1.4-0.1-1.8,0.5c-0.3,0.7-0.1,1.5,0.5,1.8
		C61.7,609,62.5,608.8,62.8,608.2z M45.5,615.1c0.6,0.3,1.4,0.1,1.7-0.5s0.1-1.4-0.5-1.7s-1.4-0.1-1.7,0.5
		C44.7,614,45,614.8,45.5,615.1z M35.6,628c0.5,0.3,1.2,0.1,1.6-0.4c0.3-0.5,0.1-1.3-0.5-1.6c-0.5-0.3-1.2-0.1-1.6,0.5
		C34.9,627,35.1,627.7,35.6,628z M34.4,642.8c-0.5-0.3-1.1-0.1-1.4,0.4c-0.3,0.5-0.1,1.1,0.4,1.4c0.5,0.3,1.1,0.1,1.4-0.4
		C35.1,643.7,34.9,643.1,34.4,642.8z M39.5,658.8c-0.3,0.5-0.1,1,0.3,1.3c0.5,0.3,1.1,0.1,1.3-0.4c0.3-0.5,0.1-1-0.4-1.3
		C40.3,658.2,39.7,658.3,39.5,658.8z M52.7,670.1c0.4,0.2,0.9,0.1,1.1-0.3c0.3-0.4,0.1-0.9-0.3-1.2c-0.4-0.2-0.9-0.1-1.1,0.3
		C52.2,669.3,52.3,669.9,52.7,670.1z M69.4,672.4c0.4,0.2,0.8,0.1,1-0.3c0.2-0.3,0.1-0.8-0.3-1c-0.3-0.2-0.9-0.1-1.1,0.3
		C69,671.8,69.1,672.2,69.4,672.4z"/>
	<path class="st2" d="M45.8,628.5c6.1-10.9,19.7-15,30.8-8.9c11,6,15,19.6,9.2,30.5c-5.9,11.3-19.7,15.4-30.7,9.6
		C43.9,653.8,39.6,639.8,45.8,628.5z M82,648.7c1-1.8,0.3-4.2-1.5-5.2s-4.2-0.3-5.2,1.5s-0.3,4.2,1.5,5.2
		C78.7,651.2,81,650.5,82,648.7z"/>
	<path class="st3" d="M93,654.8c-0.9,1.6-1.8,3.2-2.7,4.9c-0.3,0.5-0.5,0.6-1,0.3c-0.4-0.2-0.7-0.4-1.1-0.6
		c-0.5-0.3-0.5-0.5-0.3-0.9c0.5-0.9,1-1.9,1.6-2.8c0.9-1.7,1.9-3.4,2.8-5.1c0.1-0.3,0.1-0.4-0.1-0.5c-0.4-0.2-0.8-0.5-1.2-0.7
		c-0.3-0.2-0.4-0.5-0.2-0.8c0.2-0.4,0.5-0.9,0.7-1.3c0.2-0.4,0.5-0.5,0.8-0.2c1.1,0.6,2.2,1.2,3.4,1.9c0.4,0.3,0.5,0.5,0.3,0.9
		C94.9,651.4,93.9,653.1,93,654.8z"/>
	<path class="st3" d="M99.1,658.2c-0.9,1.6-1.8,3.3-2.8,4.9c-0.3,0.5-0.5,0.6-1,0.3c-0.4-0.2-0.7-0.4-1.1-0.6
		c-0.5-0.3-0.6-0.4-0.3-1c0.7-1.2,1.4-2.4,2-3.6c0.8-1.4,1.6-2.8,2.4-4.3c0.1-0.3,0.1-0.4-0.1-0.5c-0.4-0.2-0.8-0.5-1.2-0.7
		s-0.4-0.5-0.2-0.8c0.3-0.5,0.5-0.9,0.7-1.4c0.2-0.3,0.4-0.4,0.8-0.2c1.1,0.6,2.3,1.3,3.4,1.9c0.4,0.2,0.4,0.5,0.2,0.9
		C101,654.9,100,656.6,99.1,658.2z"/>
	<path class="st4" d="M97.1,636.3c-0.8-0.5-1.1-1.5-0.6-2.2s1.4-1,2.2-0.6s1.1,1.4,0.6,2.2C98.9,636.5,97.9,636.7,97.1,636.3z"/>
	<path class="st4" d="M90.8,620.7c-0.7-0.4-1-1.4-0.6-2.1c0.4-0.7,1.4-1,2.1-0.6s1,1.4,0.6,2C92.5,620.8,91.6,621.1,90.8,620.7z"/>
	<path class="st4" d="M77.9,610.8c-0.7-0.4-0.9-1.2-0.5-2c0.4-0.7,1.3-0.9,2-0.5s0.9,1.3,0.5,2C79.4,611,78.6,611.2,77.9,610.8z"/>
	<path class="st4" d="M62.8,608.2c-0.3,0.6-1.1,0.9-1.8,0.5c-0.7-0.3-0.9-1.1-0.5-1.8c0.3-0.6,1.1-0.9,1.8-0.5
		C63,606.8,63.2,607.5,62.8,608.2z"/>
	<path class="st4" d="M45.5,615.1c-0.6-0.3-0.8-1.1-0.5-1.7c0.3-0.6,1.1-0.8,1.7-0.5c0.6,0.3,0.8,1.1,0.5,1.7
		C46.9,615.3,46.1,615.5,45.5,615.1z"/>
	<path class="st4" d="M35.6,628c-0.5-0.3-0.7-1-0.4-1.6c0.3-0.5,1-0.7,1.6-0.5s0.7,1,0.5,1.6C36.9,628.1,36.2,628.3,35.6,628z"/>
	<path class="st4" d="M34.4,642.8c0.5,0.3,0.7,0.9,0.4,1.4s-0.9,0.7-1.4,0.4s-0.7-0.9-0.4-1.4S33.9,642.5,34.4,642.8z"/>
	<path class="st4" d="M39.5,658.8c0.3-0.5,0.8-0.6,1.3-0.4c0.5,0.3,0.6,0.8,0.4,1.3c-0.3,0.5-0.9,0.7-1.3,0.4
		C39.4,659.8,39.2,659.3,39.5,658.8z"/>
	<path class="st4" d="M52.7,670.1c-0.4-0.2-0.5-0.8-0.3-1.2s0.7-0.5,1.1-0.3c0.4,0.2,0.5,0.8,0.3,1.2
		C53.6,670.1,53.1,670.3,52.7,670.1z"/>
	<path class="st4" d="M69.4,672.4c-0.3-0.2-0.5-0.7-0.3-1s0.7-0.5,1.1-0.3c0.3,0.2,0.5,0.7,0.3,1C70.3,672.5,69.8,672.6,69.4,672.4z
		"/>
	<path class="st4" d="M82,648.7c-1,1.8-3.3,2.5-5.2,1.5c-1.8-1-2.5-3.3-1.5-5.2s3.4-2.6,5.2-1.5C82.3,644.5,83,646.8,82,648.7z"/>
</g>
<g>
	<path class="st5" d="M356.6,308.1c-1.2,0.5-2.4,1.1-3.6,1.7c-0.1-0.1-0.2,0.1-0.3,0.1c-3.8,1.6-7.9,2.6-12.1,3
		c-9.1,0.9-17.8-0.7-25.9-4.9c-7.6-3.9-13.6-9.6-18-16.9c-1.9-3.2-3.4-6.5-4.5-10.1c-1.8-5.8-2.4-11.7-1.8-17.7
		c0.8-8.4,3.7-15.9,8.7-22.7c3.6-5,8.2-9,13.6-12.2c3.8-2.2,7.9-3.9,12.2-4.9c8.4-2,16.7-1.8,24.9,0.9c11.1,3.7,19.7,10.7,25.5,20.9
		c0.2,0.4,0.3,0.8,0.7,1.1c0.6,1.4,1.3,2.7,1.9,4.1c-0.1,0.1,0,0.2,0.1,0.3c0.8,2,1.5,4.1,2,6.3c1.8,7.8,1.7,15.7-0.7,23.4
		c-3.6,11.7-10.7,20.6-21.3,26.7C357.4,307.6,357,307.8,356.6,308.1z"/>
	<path class="st6" d="M352.2,285c-4.4,2-8.8,4.1-13.2,6.1c-0.3,0.1-0.5,0.1-0.6-0.2c-1.2-2.6-2.5-5.2-3.6-7.8
		c-2-4.9-1.6-9.7,1.1-14.2c1.6-2.7,3.9-4.7,6.8-5.9c2.1-1,4.2-2,6.3-3c2.5-1.2,3.7-3.8,3-6.4c-0.4-1.6-1.2-2.8-2.2-4
		c-3.4-4-8.9-5.5-13.8-3.7c-6.2,2.2-9.8,8.8-8.1,15.2c0.3,1.2-0.4,2-1.2,2c-0.7,0.1-1.3-0.4-1.5-1c-1.8-6.1,0.6-13,5.7-16.7
		c6.7-4.9,15.8-3.8,21.1,2.5c1.4,1.6,2.4,3.4,2.8,5.4c0.7,3.8-1.1,7.6-4.7,9.3c-2.2,1.1-4.5,2.1-6.7,3.1c-5.3,2.6-8.1,8.4-6.8,14.1
		c0.2,0.9,0.5,1.8,0.9,2.7c0.7,1.6,1.4,3.1,2.2,4.7c0.1,0.3,0.3,0.3,0.6,0.2c7.8-3.6,15.7-7.4,23.6-11c0.3-0.1,0.5-0.3,0.7-0.3
		c0.7-0.1,1.3,0.3,1.6,0.9c0.3,0.6,0.1,1.3-0.5,1.7c-0.1,0.1-0.3,0.2-0.5,0.3C360.8,281,356.5,283,352.2,285z"/>
	<path class="st6" d="M324.3,276.4c2.5,5.3,5,10.7,7.5,16.1c0.1,0.2,0.1,0.3,0.2,0.5c0.2,0.7-0.1,1.4-0.8,1.7
		c-0.7,0.3-1.5,0-1.8-0.6c-0.1-0.1-0.1-0.3-0.2-0.5c-4.9-10.5-9.8-21-14.7-31.5c-1.1-2.3-3.2-3.6-5.7-3.4c-0.6,0.1-1.2,0.2-1.8,0.5
		c-0.8,0.3-1.6,0.1-2-0.7c-0.3-0.7,0.1-1.6,0.9-1.9c3.9-1.7,8.3-0.3,10.6,3.2c0.3,0.4,0.5,0.8,0.7,1.3
		C319.6,266.2,322,271.3,324.3,276.4z"/>
</g>
<g>
	<path class="st7" d="M74.7,61.8c0.4-0.3,0.9-0.5,1.3-0.8c0.5-0.2,1.1-0.4,1.6-0.5c1.4-0.3,2.7-0.3,4.1-0.3c1,0,2-0.1,2.9-0.3
		c2.2-0.5,4.2-1.6,6.1-2.8c0.7-0.5,1.4-1,2.2-1.4c2.1-1.4,4.3-1.6,6.6-0.6c0.9,0.3,1.7,0.7,2.5,1.1c2.7,1.5,5.5,2,8.6,1.8
		c1.2-0.1,2.5-0.3,3.7-0.4c2.2-0.1,4.2,0.5,5.7,2.1c0.8,0.9,1.5,1.8,2.2,2.8c1.3,1.6,2.7,3.1,4.5,4.2c1.4,0.9,3,1.5,4.5,2
		c1.2,0.4,2.4,1,3.4,1.8c0.3,0.3,0.5,0.5,0.8,0.7c0.3,0.4,0.5,0.8,0.7,1.2c0.1,0.4,0.3,0.8,0.5,1.2c0.5,1.4,0.6,2.8,0.8,4.3
		c0.4,2.3,1.2,4.4,2.6,6.2c0.9,1.2,2,2.2,2.9,3.4c1.6,2,2.2,4.1,1.7,6.5c-0.3,1.1-0.6,2-1,3c-0.9,2.4-1.2,4.9-0.8,7.4
		c0.2,1.4,0.6,2.8,0.9,4.1c0.5,2.2,0.4,4.3-0.9,6.1c-0.7,1.1-1.7,2-2.6,2.8c-2.2,2-3.8,4.4-4.7,7.3c-0.3,1.4-0.6,2.7-1.1,4
		c-0.6,1.8-1.7,3.2-3.4,4.1c-1.1,0.6-2.4,0.9-3.7,1.3c-2.7,0.7-5.1,1.9-7.1,3.9c-0.9,0.9-1.8,2-2.7,3c-1.9,2-4.1,2.8-6.8,2.4
		c-0.9-0.1-1.8-0.3-2.7-0.5c-2.9-0.7-5.7-0.6-8.6,0.4c-1.3,0.4-2.4,1-3.7,1.4c-2,0.5-4.1,0.4-5.9-0.7c-0.9-0.5-1.6-1.1-2.4-1.8
		c-2.9-2.5-6.1-4.1-10-4.2c-0.8,0-1.6-0.2-2.4-0.3c-1.8-0.4-3.2-1.4-4.3-2.9c-0.7-0.9-1.1-2-1.6-3.1c-1.2-3.4-3.3-6-6.3-8
		c-0.8-0.5-1.6-1.1-2.4-1.8c-1.8-1.6-2.8-3.5-2.8-5.9c0-0.9,0.1-1.8,0.2-2.7c0.3-3-0.1-5.9-1.5-8.7c-0.6-1.2-1.3-2.5-1.8-3.8
		c-0.8-2.1-0.9-4.1,0.2-6.1c0.4-0.7,0.9-1.4,1.4-2.2c1.8-2.6,2.8-5.3,3-8.5c0.1-1.1-0.1-2.3,0-3.4c0-2.3,0.9-4.2,2.6-5.7
		c0.9-0.8,2-1.4,3.1-2c1.3-0.7,2.5-1.6,3.6-2.5c1.4-1.3,2.5-2.8,3.3-4.6c0.7-1.4,1.4-2.8,2.4-3.8C74.3,62.2,74.5,62,74.7,61.8z
		 M79.5,89.1c0.1,0.1,0.2,0.3,0.3,0.4c7.8,12.4,15.5,24.7,23.4,37.1c0.1,0.1,0.1,0.2,0.2,0.3c0.1,0.1,0.2,0.1,0.3,0.1
		c0.4-0.3,0.7-0.5,1.1-0.7c0.5-0.3,0.5-0.2,0.1-0.7c-8.2-13-16.4-26.1-24.6-39.1c-0.1-0.1-0.1-0.3-0.3-0.4c0.1,0.1,0.2,0.3,0.3,0.4
		c8.2,13,16.3,26,24.5,39c0.1,0.1,0.1,0.2,0.2,0.3c0.1,0.3,0.3,0.3,0.5,0.1c0.6-0.4,1.3-0.8,1.9-1.2c0.5-0.3,0.5-0.3,0.2-0.8
		c-8.8-14.1-17.6-28-26.4-42c0-0.1-0.1-0.1-0.1-0.1c-0.1-0.3-0.3-0.3-0.5-0.1c-4.3,2.7-8.6,5.4-12.8,8.1c-0.3,0.1-0.3,0.3-0.1,0.5
		c0.5,0.8,1,1.6,1.5,2.4c0.4,0.6,0.8,1.2,1.1,1.9c0.5,0.8,1,1.6,1.5,2.4c0.1,0.3,0.3,0.3,0.5,0.1c1.8-1.1,3.6-2.3,5.4-3.4
		c0.5-0.3,0.4-0.4,0.8,0.2c7.2,11.5,14.4,23,21.7,34.4c0.1,0.1,0.1,0.2,0.2,0.3c0.1,0.2,0.3,0.3,0.5,0.1c0.6-0.4,1.2-0.8,1.8-1.1
		c0.6-0.4,0.6-0.3,0.2-0.9c-7.8-12.4-15.5-24.7-23.3-37C79.6,89.3,79.5,89.2,79.5,89.1z M89.9,82.2c0.5,0.7,0.9,1.5,1.4,2.3
		c0.1,0.3,0.3,0.3,0.5,0.1c2.2-1.4,4.3-2.7,6.5-4c0.4-0.3,0.4-0.3,0.5,0.2c0.5,4.9,1,9.9,1.6,14.9c0.1,0.8,0.1,0.7,0.8,0.4
		c1.4-0.7,2.8-1.4,4.3-2c2.2-0.9,4.5-1.2,6.9-0.7c3.8,0.8,6.3,3.3,7.8,6.8c1.8,4.7,0,10-4.3,12.7c-1.1,0.7-2.3,1.2-3.5,1.6
		c-0.1,0.1-0.3,0-0.3,0.3c0.2,0.9,0.4,2,0.7,2.9c0.1,0.7,0.2,1.5,0.4,2.2c0.1,0.9,0.3,1.7,0.4,2.6c0.1,0.3,0.2,0.4,0.5,0.3
		c3.2-0.7,6.1-2.1,8.7-4.3c3.6-3.2,5.8-7.1,6.5-11.9c0.7-5.1-0.5-9.7-3.4-13.9c-1.6-2.3-3.6-4.2-6.1-5.5c-3.6-2.1-7.5-2.8-11.6-2.4
		c-0.3,0-0.5-0.1-0.5-0.4c-0.6-6-1.1-12.1-1.8-18.1c-0.1-0.5-0.1-0.5-0.5-0.3c-2.6,1.6-5.1,3.2-7.6,4.8c-3.5,2.2-7,4.5-10.5,6.6
		C87,77.6,87,77.7,87.2,78c0.5,0.7,0.9,1.6,1.5,2.3C89.1,80.9,89.5,81.6,89.9,82.2z"/>
	<path class="st8" d="M88.7,80.3c-0.5-0.7-0.9-1.6-1.5-2.3c-0.2-0.3-0.1-0.4,0.1-0.6c3.5-2.2,7-4.4,10.5-6.6
		c2.6-1.6,5.1-3.2,7.6-4.8c0.4-0.3,0.4-0.3,0.5,0.3c0.6,6,1.2,12.1,1.8,18.1c0,0.3,0.1,0.4,0.5,0.4c4.1-0.3,8,0.4,11.6,2.4
		c2.4,1.4,4.5,3.2,6.1,5.5c3,4.2,4.1,8.8,3.4,13.9c-0.7,4.7-2.9,8.7-6.5,11.9c-2.5,2.2-5.5,3.6-8.7,4.3c-0.3,0.1-0.5,0-0.5-0.3
		c-0.1-0.9-0.3-1.7-0.4-2.6c0.1,0,0.1-0.1,0.2-0.1c3.2-0.9,6.1-2.4,8.4-4.8c6.4-6.5,6.1-15.9,0.4-21.9c-4.6-4.9-10.3-6.2-16.7-4.7
		c-0.3,0.1-0.4,0-0.4-0.3c-0.5-5.4-1.1-10.8-1.7-16.2c-0.1-0.7-0.1-0.7-0.7-0.3C98.1,74.4,93.4,77.4,88.7,80.3z"/>
	<path class="st8" d="M112.8,117.6c-0.2-0.9-0.4-2-0.7-2.9c-0.1-0.3,0.1-0.3,0.3-0.3c1.3-0.3,2.4-0.8,3.5-1.6
		c4.3-2.7,6.1-8,4.3-12.7c-1.4-3.5-3.9-6-7.8-6.8c-2.4-0.5-4.7-0.1-6.9,0.7c-1.5,0.6-2.9,1.4-4.3,2c-0.7,0.3-0.7,0.3-0.8-0.4
		c-0.5-4.9-1.1-9.9-1.6-14.9c-0.1-0.5-0.1-0.5-0.5-0.2c-2.2,1.4-4.3,2.6-6.5,4c-0.3,0.1-0.4,0.1-0.5-0.1c-0.5-0.7-0.9-1.6-1.4-2.3
		c3.7-2.4,7.4-4.7,11.1-7c0.5-0.3,0.5-0.3,0.5,0.2c0.5,5.3,1,10.6,1.6,15.9c0,0.3,0.1,0.4,0.4,0.3c1.4-0.6,2.8-1,4.2-1.2
		c7-1.1,13.1,2.2,15.7,8.7c2.3,5.9,0.1,12.6-5.2,16.3C116.5,116.3,114.8,117.1,112.8,117.6z"/>
	<path class="st8" d="M69.3,92.6c-0.5-0.8-1-1.6-1.5-2.4c-0.1-0.2-0.1-0.3,0.1-0.5c4.3-2.7,8.6-5.4,12.8-8.1
		c0.2-0.1,0.3-0.1,0.5,0.1c0,0.1,0.1,0.1,0.1,0.1c8.7,13.9,17.5,27.9,26.2,41.8c0.3,0.5,0.3,0.4-0.2,0.8c-0.6,0.4-1.3,0.8-1.9,1.2
		c-0.2,0.1-0.3,0.1-0.5-0.1c-0.1-0.1-0.1-0.2-0.2-0.3c-8.2-13-16.3-26-24.5-39c-0.1-0.1-0.1-0.3-0.3-0.4c-0.2-0.1-0.3,0.1-0.4,0.1
		C76.2,88.3,72.7,90.4,69.3,92.6z"/>
	<path class="st4" d="M112.8,117.6c1.9-0.5,3.7-1.2,5.3-2.4c5.3-3.6,7.5-10.3,5.2-16.3c-2.5-6.5-8.6-9.9-15.7-8.7
		c-1.4,0.3-2.8,0.7-4.2,1.2c-0.3,0.1-0.3,0.1-0.4-0.3c-0.5-5.3-1-10.6-1.6-15.9c-0.1-0.5-0.1-0.5-0.5-0.2c-3.7,2.4-7.4,4.7-11.1,7
		c-0.4-0.6-0.8-1.3-1.2-1.9c4.7-2.9,9.3-5.9,14-8.8c0.6-0.4,0.6-0.4,0.7,0.3c0.5,5.4,1.1,10.8,1.7,16.2c0,0.3,0.1,0.3,0.4,0.3
		c6.5-1.6,12.2-0.2,16.7,4.7c5.7,6.1,6,15.5-0.4,21.9c-2.4,2.4-5.2,3.9-8.4,4.8c-0.1,0-0.1,0.1-0.2,0.1
		C113,119.1,112.9,118.4,112.8,117.6z"/>
	<path class="st8" d="M79.5,89.1c0,0.1,0.1,0.3,0.2,0.4c7.8,12.4,15.5,24.7,23.3,37c0.4,0.6,0.4,0.5-0.2,0.9
		c-0.6,0.4-1.2,0.7-1.8,1.1c-0.2,0.1-0.3,0.1-0.5-0.1c-0.1-0.1-0.1-0.2-0.2-0.3c-7.3-11.5-14.5-23-21.7-34.4
		c-0.3-0.5-0.3-0.5-0.8-0.2c-1.8,1.1-3.6,2.3-5.4,3.4c-0.3,0.1-0.3,0.1-0.5-0.1c-0.5-0.8-1-1.6-1.5-2.4c2-1.3,4-2.5,6-3.8
		c0.9-0.5,1.8-1.1,2.6-1.6C79.2,88.9,79.3,88.9,79.5,89.1z"/>
	<path class="st4" d="M79.5,89.1c-0.1-0.2-0.3-0.1-0.4-0.1c-0.9,0.5-1.8,1.1-2.6,1.6c-2,1.3-4,2.5-6,3.8c-0.4-0.6-0.8-1.2-1.1-1.9
		c3.4-2.2,6.9-4.3,10.4-6.5c0.1-0.1,0.2-0.2,0.4-0.1c0.1,0.1,0.1,0.3,0.3,0.4c8.2,13,16.4,26.1,24.6,39.1c0.3,0.5,0.3,0.3-0.1,0.7
		c-0.4,0.3-0.7,0.5-1.1,0.7c-0.1,0.1-0.3,0.1-0.3-0.1c-0.1-0.1-0.1-0.2-0.2-0.3C95.6,114,87.9,101.7,80,89.3
		C79.7,89.3,79.5,89.2,79.5,89.1z"/>
</g>
<g class="st9">
	<g>
		<path class="st1" d="M259.4,258.7c0.5,0,1.1,0,1.7,0c0,0,0,0,0.1,0c1.2,0.1,2.3,0.2,3.5,0.5c3.8,1,6.9,3.2,9.1,6.5
			c1.6,2.3,2.5,4.9,2.8,7.8c0,0.1,0,0.3,0,0.4c0,0.6,0,1.1,0,1.7v0.1c0,0.9-0.2,1.8-0.4,2.7c-0.8,3.7-2.7,6.7-5.6,9.1
			c-2.6,2.1-5.5,3.2-8.8,3.5c-1.9,0.2-3.9,0-5.7-0.5c-3.1-0.9-5.6-2.5-7.7-4.9c-2.3-2.6-3.6-5.6-3.9-9c-0.2-1.9-0.1-3.7,0.4-5.5
			c0.7-2.7,2-5.1,3.9-7.1c1.6-1.7,3.4-3,5.5-3.9C255.8,259.3,257.5,258.9,259.4,258.7C259.3,258.7,259.4,258.7,259.4,258.7z
			 M252.3,275c0.1,4.6,3.9,8.1,8.4,8c4.4-0.2,8-3.8,7.8-8.4c-0.2-4.4-3.8-7.9-8.2-7.8C255.7,266.9,252.2,270.6,252.3,275z
			 M271.5,274.8c0-0.7,0-1.4,0-2.1c0-0.2-0.1-0.2-0.2-0.2c-0.4,0-0.9,0-1.4,0c-0.2,0-0.2,0.1-0.2,0.2c0,0.2,0,0.4,0,0.5
			c0,0.2,0.1,0.2,0.2,0.2c0.2,0,0.3,0,0.5,0c0.1,0,0.1,0,0.1,0.1c0,0.7,0,1.4,0,2.1c0,0.4,0,0.8,0,1.1c0,0.2,0,0.3,0.2,0.2
			c0.2,0,0.3,0,0.5,0s0.3,0,0.3-0.3C271.5,276.2,271.5,275.5,271.5,274.8z M273.9,274.8c0-0.7,0-1.4,0-2c0-0.2-0.1-0.2-0.2-0.2
			c-0.5,0-0.9,0-1.4,0c-0.1,0-0.2,0.1-0.2,0.2c0,0.2,0,0.4,0,0.5c0,0.2,0.1,0.2,0.2,0.2c0.2,0,0.3,0,0.5,0c0.1,0,0.1,0,0.1,0.1
			c0,0.6,0,1.2,0,1.8c0,0.5,0,1,0,1.4c0,0.2,0,0.3,0.3,0.3c0.2,0,0.3,0,0.5,0s0.3,0,0.3-0.3C274,276.1,274,275.5,273.9,274.8z
			 M269.5,268.4c0.3,0,0.6-0.2,0.6-0.6s-0.3-0.6-0.6-0.6c-0.3,0-0.6,0.3-0.6,0.6S269.2,268.4,269.5,268.4z M264.8,264.7
			c0.3,0,0.5-0.3,0.5-0.6s-0.2-0.5-0.5-0.5s-0.5,0.3-0.5,0.6C264.2,264.4,264.5,264.7,264.8,264.7z M259.1,263.9
			c0.3,0,0.5-0.2,0.5-0.5s-0.2-0.5-0.5-0.5s-0.5,0.2-0.5,0.5C258.6,263.7,258.8,263.9,259.1,263.9z M254,265.7
			c0-0.3-0.2-0.5-0.5-0.5c-0.2,0-0.5,0.2-0.5,0.5s0.2,0.5,0.5,0.5S254,266,254,265.7z M249.9,270.9c0.2,0,0.4-0.2,0.4-0.4
			c0-0.2-0.2-0.4-0.4-0.4s-0.4,0.2-0.4,0.4C249.4,270.7,249.6,270.9,249.9,270.9z M249,276.6c0.2,0,0.4-0.2,0.4-0.4
			c0-0.2-0.2-0.4-0.4-0.4s-0.4,0.2-0.4,0.4C248.6,276.5,248.8,276.6,249,276.6z M251.3,281.4c-0.2,0-0.4,0.2-0.4,0.4
			c0,0.2,0.2,0.4,0.4,0.4s0.4-0.2,0.4-0.4C251.6,281.6,251.5,281.4,251.3,281.4z M255.7,285.5c0,0.2,0.2,0.3,0.3,0.3
			c0.2,0,0.3-0.2,0.3-0.4c0-0.2-0.2-0.3-0.4-0.3C255.8,285.1,255.6,285.3,255.7,285.5z M261.7,286.6c0.2,0,0.3-0.1,0.3-0.3
			c0-0.2-0.1-0.3-0.3-0.3c-0.2,0-0.3,0.1-0.3,0.3C261.4,286.5,261.6,286.6,261.7,286.6z M267.3,284.4c0.2,0,0.3-0.1,0.3-0.3
			c0-0.1-0.1-0.3-0.3-0.3s-0.3,0.1-0.3,0.3S267.2,284.4,267.3,284.4z"/>
		<path class="st2" d="M252.3,275c0-4.4,3.4-8.1,7.9-8.2c4.5-0.1,8.1,3.4,8.2,7.8c0.1,4.5-3.4,8.2-7.8,8.4
			C256.1,283.2,252.4,279.6,252.3,275z M267,274.9c0-0.7-0.6-1.4-1.4-1.3c-0.7,0-1.4,0.6-1.3,1.4c0,0.7,0.6,1.4,1.4,1.3
			C266.4,276.2,267,275.6,267,274.9z"/>
		<path class="st3" d="M271.5,274.8c0,0.7,0,1.3,0,2c0,0.2,0,0.3-0.3,0.3c-0.2,0-0.3,0-0.5,0s-0.2-0.1-0.2-0.2c0-0.4,0-0.8,0-1.1
			c0-0.7,0-1.4,0-2.1c0-0.1,0-0.1-0.1-0.1c-0.2,0-0.3,0-0.5,0c-0.1,0-0.2-0.1-0.2-0.2c0-0.2,0-0.4,0-0.5c0-0.2,0.1-0.2,0.2-0.2
			c0.5,0,0.9,0,1.4,0c0.2,0,0.2,0.1,0.2,0.2C271.5,273.5,271.5,274.1,271.5,274.8z"/>
		<path class="st3" d="M273.9,274.8c0,0.7,0,1.3,0,2c0,0.2,0,0.3-0.3,0.3c-0.2,0-0.3,0-0.5,0s-0.3,0-0.3-0.3c0-0.5,0-1,0-1.4
			c0-0.6,0-1.2,0-1.8c0-0.1,0-0.1-0.1-0.1c-0.2,0-0.3,0-0.5,0s-0.2-0.1-0.2-0.2c0-0.2,0-0.4,0-0.5s0.1-0.2,0.2-0.2
			c0.5,0,0.9,0,1.4,0c0.2,0,0.2,0.1,0.2,0.2C273.9,273.4,273.9,274.1,273.9,274.8z"/>
		<path class="st4" d="M269.5,268.4c-0.3,0-0.6-0.3-0.6-0.6c0-0.3,0.3-0.6,0.6-0.6c0.3,0,0.6,0.2,0.6,0.6
			C270.1,268.1,269.8,268.4,269.5,268.4z"/>
		<path class="st4" d="M264.8,264.7c-0.3,0-0.5-0.2-0.6-0.5s0.2-0.5,0.5-0.6c0.3,0,0.5,0.2,0.5,0.5
			C265.3,264.4,265.1,264.7,264.8,264.7z"/>
		<path class="st4" d="M259.1,263.9c-0.3,0-0.5-0.2-0.5-0.5s0.2-0.5,0.5-0.5s0.5,0.2,0.5,0.5C259.6,263.7,259.3,263.9,259.1,263.9z"
			/>
		<path class="st4" d="M254,265.7c0,0.2-0.2,0.5-0.4,0.5c-0.3,0-0.5-0.2-0.5-0.5c0-0.2,0.2-0.5,0.5-0.5
			C253.8,265.3,254,265.5,254,265.7z"/>
		<path class="st4" d="M249.9,270.9c-0.2,0-0.4-0.2-0.4-0.4c0-0.2,0.2-0.4,0.4-0.4s0.4,0.2,0.4,0.4
			C250.3,270.7,250.1,270.9,249.9,270.9z"/>
		<path class="st4" d="M249,276.6c-0.2,0-0.4-0.2-0.4-0.4c0-0.2,0.2-0.4,0.4-0.4s0.4,0.2,0.4,0.4C249.5,276.4,249.3,276.6,249,276.6
			z"/>
		<path class="st4" d="M251.3,281.4c0.2,0,0.4,0.2,0.4,0.4c0,0.2-0.2,0.4-0.4,0.4s-0.4-0.2-0.4-0.4
			C250.9,281.6,251.1,281.4,251.3,281.4z"/>
		<path class="st4" d="M255.7,285.5c0-0.2,0.1-0.3,0.3-0.4c0.2,0,0.3,0.1,0.4,0.3c0,0.2-0.2,0.4-0.3,0.4
			C255.8,285.8,255.6,285.7,255.7,285.5z"/>
		<path class="st4" d="M261.7,286.6c-0.2,0-0.3-0.2-0.3-0.3c0-0.2,0.1-0.3,0.3-0.3c0.2,0,0.3,0.2,0.3,0.3
			C262,286.5,261.9,286.6,261.7,286.6z"/>
		<path class="st4" d="M267.3,284.4c-0.1,0-0.3-0.1-0.3-0.3c0-0.1,0.1-0.3,0.3-0.3c0.1,0,0.3,0.1,0.3,0.3
			C267.6,284.3,267.5,284.4,267.3,284.4z"/>
		<path class="st4" d="M267,274.9c0,0.7-0.6,1.4-1.3,1.4c-0.7,0-1.4-0.6-1.4-1.3c0-0.8,0.6-1.4,1.3-1.4
			C266.4,273.5,267,274.1,267,274.9z"/>
	</g>
	<g>
		<path class="st5" d="M202.1,291c-0.5,0-1,0-1.4,0h-0.1c-1.5-0.1-2.9-0.3-4.4-0.8c-3.1-1-5.7-2.8-7.7-5.3c-1.9-2.4-3-5.1-3.4-8.1
			c-0.2-1.3-0.1-2.6,0-3.9c0.3-2.1,0.9-4.1,2-6c1.5-2.6,3.5-4.6,6.1-6.1c1.9-1.1,4-1.8,6.2-2c1.6-0.2,3.1-0.1,4.7,0.2
			c3,0.6,5.7,1.8,7.9,3.9c3.1,2.8,4.8,6.3,5.2,10.5c0,0.2,0,0.3,0.1,0.5c0,0.5,0,1.1,0,1.6v0.1c0,0.8-0.1,1.6-0.3,2.3
			c-0.5,2.8-1.7,5.3-3.6,7.5c-2.8,3.3-6.4,5.1-10.8,5.6C202.4,290.9,202.2,290.9,202.1,291z M204,282.8c1.7,0,3.4-0.1,5.1-0.1
			c0.1,0,0.1,0,0.2,0c0.2-0.1,0.4-0.2,0.4-0.5s-0.1-0.4-0.4-0.5c-0.1,0-0.2,0-0.3,0c-3.1,0-6.2,0.1-9.2,0.2c-0.1,0-0.2,0-0.2-0.2
			c0-0.6,0-1.2,0-1.8c0-0.3,0-0.7,0.1-1c0.4-2,2.2-3.5,4.3-3.6c0.9,0,1.7,0,2.6,0c1.4,0,2.6-1,2.9-2.3c0.2-0.7,0.1-1.5-0.1-2.2
			c-0.8-2.8-3.6-4.5-6.5-3.9c-2.2,0.5-4,2.3-4.3,4.6c0,0.2,0.1,0.5,0.3,0.5c0.3,0.1,0.6,0,0.7-0.5c0.4-2.3,2.5-4,4.8-3.8
			c1.9,0.1,3.4,1.4,4,3.2c0.2,0.5,0.3,1.1,0.1,1.6c-0.2,1-1,1.6-1.9,1.6c-0.8,0-1.6,0-2.5,0c-1.1,0-2.1,0.3-3,0.9
			c-1.5,1.1-2.4,2.6-2.4,4.5c0,1,0,2,0,3.1c0,0.1,0,0.2,0.2,0.2C200.5,282.9,202.3,282.9,204,282.8z M196.2,276c0-2-0.1-4-0.1-6
			c0-0.2,0-0.3,0-0.5c-0.2-1.5-1.5-2.6-3-2.6c-0.3,0-0.5,0.2-0.6,0.5c0,0.3,0.2,0.5,0.5,0.5c0.2,0,0.5,0,0.7,0.1
			c0.8,0.3,1.3,1,1.4,1.9c0.1,4.1,0.1,8.2,0.2,12.4c0,0.1,0,0.1,0,0.2c0,0.3,0.2,0.5,0.5,0.5s0.5-0.2,0.5-0.4c0-0.1,0-0.1,0-0.2
			C196.3,280.2,196.2,278.1,196.2,276z"/>
		<path class="st6" d="M204,282.8c-1.7,0-3.4,0.1-5.2,0.1c-0.1,0-0.2,0-0.2-0.2c0-1-0.1-2,0-3.1c0.1-1.9,0.9-3.4,2.4-4.5
			c0.9-0.6,1.9-0.9,3-0.9c0.8,0,1.6,0,2.5,0c1,0,1.8-0.7,1.9-1.6c0.1-0.6,0-1.1-0.1-1.6c-0.5-1.8-2.1-3.1-4-3.2
			c-2.3-0.2-4.5,1.5-4.8,3.8c-0.1,0.4-0.4,0.6-0.7,0.5c-0.2-0.1-0.4-0.3-0.3-0.5c0.3-2.2,2.1-4.1,4.3-4.6c2.9-0.6,5.7,1.1,6.5,3.9
			c0.2,0.7,0.3,1.4,0.1,2.2c-0.3,1.4-1.5,2.3-2.9,2.3c-0.9,0-1.7,0-2.6,0c-2.1,0.1-3.8,1.6-4.3,3.6c-0.1,0.3-0.1,0.7-0.1,1
			c0,0.6,0,1.2,0,1.8c0,0.1,0,0.1,0.2,0.2c3.1,0,6.2-0.1,9.2-0.2c0.1,0,0.2,0,0.3,0c0.2,0.1,0.4,0.3,0.4,0.5s-0.2,0.4-0.4,0.5
			c-0.1,0-0.1,0-0.2,0C207.4,282.8,205.7,282.8,204,282.8z"/>
		<path class="st6" d="M196.2,276c0,2.1,0.1,4.2,0.1,6.3c0,0.1,0,0.1,0,0.2c0,0.2-0.2,0.4-0.5,0.4s-0.5-0.2-0.5-0.5
			c0-0.1,0-0.1,0-0.2c-0.1-4.1-0.1-8.2-0.2-12.4c0-0.9-0.5-1.6-1.4-1.9c-0.2-0.1-0.4-0.1-0.7-0.1s-0.5-0.2-0.5-0.5s0.2-0.5,0.6-0.5
			c1.5,0,2.7,1.1,3,2.6c0,0.2,0,0.3,0,0.5C196.1,272.1,196.2,274,196.2,276z"/>
	</g>
	<g>
		<path class="st7" d="M139,258.8c0.2,0,0.4,0,0.5,0c0.2,0,0.4,0.1,0.6,0.1c0.5,0.1,0.9,0.4,1.3,0.6c0.3,0.2,0.6,0.3,0.9,0.4
			c0.8,0.3,1.6,0.3,2.4,0.3c0.3,0,0.6,0,0.9,0c0.9,0,1.6,0.3,2.1,1c0.2,0.3,0.4,0.5,0.5,0.8c0.5,0.9,1.3,1.6,2.3,2.1
			c0.4,0.2,0.8,0.4,1.2,0.6c0.7,0.4,1.2,0.9,1.4,1.7c0.1,0.4,0.1,0.8,0.2,1.2c0.1,0.7,0.3,1.4,0.6,2.1c0.3,0.5,0.6,1,1,1.4
			c0.3,0.3,0.5,0.7,0.7,1.2c0,0.1,0.1,0.3,0.1,0.4c0,0.2,0,0.3,0,0.5c0,0.1,0,0.3-0.1,0.5c-0.1,0.5-0.3,1-0.5,1.4
			c-0.3,0.8-0.4,1.6-0.4,2.4c0,0.5,0.2,1,0.3,1.6c0.1,0.9-0.1,1.6-0.7,2.3c-0.3,0.3-0.6,0.5-0.9,0.7c-0.7,0.6-1.3,1.3-1.6,2.1
			c-0.2,0.5-0.3,1-0.5,1.4c-0.2,0.8-0.7,1.4-1.4,1.7c-0.4,0.2-0.9,0.3-1.3,0.4c-1,0.2-2,0.6-2.8,1.4c-0.4,0.3-0.7,0.7-1.1,1
			c-0.5,0.4-1.1,0.7-1.8,0.6c-0.5,0-0.9-0.2-1.4-0.3c-0.9-0.3-1.9-0.4-2.9-0.1c-0.5,0.1-0.9,0.3-1.4,0.4c-0.9,0.2-1.8,0.1-2.5-0.5
			c-0.3-0.2-0.5-0.4-0.7-0.7c-0.8-0.7-1.6-1.2-2.7-1.4c-0.5-0.1-0.9-0.1-1.4-0.3c-0.7-0.2-1.3-0.6-1.7-1.3c-0.2-0.3-0.3-0.6-0.4-1
			c-0.4-1.3-1.1-2.4-2.3-3.1c-0.2-0.1-0.5-0.4-0.7-0.5c-0.5-0.4-0.7-1-0.8-1.7c0-0.4,0-0.8,0.1-1.2c0.2-1.2,0.1-2.4-0.4-3.6
			c-0.1-0.3-0.3-0.6-0.4-1c-0.3-0.8-0.2-1.6,0.2-2.3c0.2-0.3,0.4-0.5,0.6-0.8c0.7-0.9,1-1.8,1.1-2.9c0-0.5,0.1-1,0.2-1.5
			c0.1-0.8,0.5-1.4,1.2-1.8c0.3-0.2,0.5-0.3,0.8-0.4c1-0.5,1.8-1.1,2.5-2c0.2-0.3,0.4-0.7,0.6-1c0.4-0.7,1-1.1,1.8-1.3
			c0.4-0.1,0.9,0,1.3,0c0.5,0,1,0,1.5-0.1c0.7-0.1,1.3-0.4,1.8-0.8c0.5-0.3,0.9-0.6,1.4-0.7C138.8,258.9,138.9,258.8,139,258.8z
			 M135.4,268c0,0.1,0,0.1,0,0.2c0.1,5.2,0.2,10.4,0.3,15.6v0.1c0,0.1,0,0.1,0.1,0.1c0.2,0,0.3,0,0.5,0s0.2,0,0.2-0.2
			c-0.1-5.5-0.2-10.9-0.3-16.4c0-0.1,0-0.1,0-0.2c0,0,0,0.1,0,0.2c0.1,5.4,0.2,10.9,0.3,16.3v0.1c0,0.1,0,0.1,0.1,0.1
			c0.3,0,0.5,0,0.8,0c0.2,0,0.2,0,0.2-0.2c-0.1-5.8-0.2-11.7-0.3-17.5v-0.1c0-0.1,0-0.1-0.1-0.1c-1.8,0-3.6,0.1-5.4,0.1
			c-0.1,0-0.1,0-0.1,0.2c0,0.3,0,0.7,0,1s0,0.5,0,0.8s0,0.7,0,1c0,0.1,0,0.1,0.1,0.1c0.8,0,1.5,0,2.3-0.1c0.2,0,0.2,0,0.2,0.2
			c0.1,4.8,0.2,9.6,0.3,14.4v0.1c0,0.1,0,0.1,0.1,0.1c0.3,0,0.5,0,0.8,0s0.2,0,0.2-0.2c-0.1-5.2-0.2-10.4-0.3-15.5
			C135.4,268.1,135.4,268,135.4,268z M139.9,267.8c0,0.3,0,0.6,0,1c0,0.1,0,0.1,0.1,0.1c0.9,0,1.8,0,2.7,0c0.2,0,0.2,0,0.1,0.1
			c-0.8,1.6-1.5,3.2-2.2,4.8c-0.1,0.3-0.1,0.2,0.2,0.3c0.6,0.1,1.1,0.1,1.7,0.2c0.8,0.1,1.6,0.5,2.2,1c1,1,1.3,2.2,1.1,3.5
			c-0.3,1.8-1.8,3-3.6,3.1c-0.5,0-0.9-0.1-1.4-0.2c-0.1,0-0.1-0.1-0.1,0c-0.1,0.3-0.2,0.7-0.3,1c-0.1,0.2-0.2,0.5-0.3,0.8
			s-0.2,0.6-0.3,0.9c0,0.1,0,0.2,0.1,0.2c1.1,0.4,2.3,0.5,3.4,0.3c1.7-0.3,3.1-1.1,4.2-2.4c1.2-1.4,1.6-3,1.5-4.8
			c-0.1-1-0.3-1.9-0.8-2.8c-0.7-1.3-1.8-2.2-3.1-2.9c-0.1-0.1-0.1-0.1-0.1-0.2c0.9-1.9,1.9-3.9,2.8-5.8c0.1-0.2,0.1-0.2-0.1-0.2
			c-1.1,0-2.2,0-3.2,0.1c-1.5,0-3,0.1-4.4,0.1c-0.1,0-0.2,0-0.2,0.2c0,0.3,0,0.6,0,1C139.9,267.3,139.9,267.5,139.9,267.8z"/>
		<path class="st8" d="M139.9,267c0-0.3,0-0.6,0-1c0-0.1,0-0.1,0.2-0.2c1.5,0,2.9,0,4.4-0.1c1.1,0,2.2,0,3.2-0.1
			c0.2,0,0.2,0,0.1,0.2c-0.9,1.9-1.8,3.9-2.8,5.8c-0.1,0.1,0,0.1,0.1,0.2c1.3,0.7,2.3,1.6,3.1,2.9c0.5,0.9,0.8,1.8,0.8,2.8
			c0.1,1.8-0.4,3.4-1.5,4.8c-1.1,1.3-2.5,2.1-4.2,2.4c-1.2,0.2-2.3,0.1-3.4-0.3c-0.1,0-0.1-0.1-0.1-0.2c0.1-0.3,0.2-0.6,0.3-0.9h0.1
			c1.1,0.3,2.3,0.4,3.4,0.1c3.1-0.8,4.8-3.7,4.1-6.6c-0.5-2.3-2-3.8-4.2-4.5c-0.1,0-0.1-0.1-0.1-0.2c0.8-1.7,1.6-3.5,2.5-5.2
			c0.1-0.2,0.1-0.2-0.1-0.2C143.8,266.9,141.8,267,139.9,267z"/>
		<path class="st8" d="M140.4,282.7c0.1-0.3,0.2-0.7,0.3-1c0-0.1,0.1-0.1,0.1,0c0.5,0.1,0.9,0.2,1.4,0.2c1.8,0,3.3-1.3,3.6-3.1
			c0.2-1.3-0.1-2.5-1.1-3.5c-0.6-0.6-1.4-0.9-2.2-1c-0.6-0.1-1.1-0.1-1.7-0.2c-0.3,0-0.3,0-0.2-0.3c0.7-1.6,1.5-3.2,2.2-4.8
			c0.1-0.2,0.1-0.2-0.1-0.1c-0.9,0-1.8,0-2.7,0c-0.1,0-0.1,0-0.1-0.1c0-0.3,0-0.6,0-1c1.6,0,3.1-0.1,4.7-0.1c0.2,0,0.2,0,0.1,0.1
			c-0.8,1.7-1.6,3.4-2.4,5.1c0,0.1-0.1,0.1,0.1,0.2c0.5,0.1,1,0.2,1.5,0.4c2.3,0.9,3.6,3.1,3.2,5.5c-0.4,2.2-2.3,3.9-4.6,4
			C141.7,283.1,141,283,140.4,282.7z"/>
		<path class="st8" d="M131.7,267.2c0-0.3,0-0.7,0-1c0-0.1,0-0.1,0.1-0.2c1.8,0,3.6-0.1,5.4-0.1c0.1,0,0.1,0,0.1,0.1v0.1
			c0.1,5.8,0.2,11.7,0.3,17.5c0,0.2,0,0.2-0.2,0.2c-0.3,0-0.5,0-0.8,0c-0.1,0-0.1,0-0.1-0.1s0-0.1,0-0.1c-0.1-5.4-0.2-10.9-0.3-16.3
			c0-0.1,0-0.1,0-0.2s-0.1,0-0.1,0C134.6,267.1,133.1,267.1,131.7,267.2z"/>
		<path class="st4" d="M140.4,282.7c0.7,0.2,1.4,0.3,2,0.2c2.3-0.1,4.2-1.7,4.6-4c0.4-2.4-0.8-4.6-3.2-5.5c-0.5-0.2-1-0.3-1.5-0.4
			c-0.1,0-0.1,0-0.1-0.2c0.8-1.7,1.6-3.4,2.4-5.1c0.1-0.2,0.1-0.2-0.1-0.1c-1.6,0-3.1,0.1-4.7,0.1c0-0.3,0-0.5,0-0.8
			c1.9,0,3.9-0.1,5.9-0.1c0.3,0,0.3,0,0.1,0.2c-0.8,1.7-1.6,3.5-2.5,5.2c-0.1,0.1,0,0.1,0.1,0.2c2.3,0.7,3.8,2.2,4.2,4.5
			c0.6,2.9-1,5.8-4.1,6.6c-1.2,0.3-2.3,0.2-3.4-0.1H140C140.1,283.3,140.3,283,140.4,282.7z"/>
		<path class="st8" d="M135.4,268c0,0,0,0.1,0,0.2c0.1,5.2,0.2,10.4,0.3,15.5c0,0.3,0,0.2-0.2,0.2c-0.3,0-0.5,0-0.8,0
			c-0.1,0-0.1,0-0.1-0.1s0-0.1,0-0.1c-0.1-4.8-0.2-9.6-0.3-14.4c0-0.2,0-0.2-0.2-0.2c-0.8,0-1.5,0-2.3,0.1c-0.1,0-0.1,0-0.1-0.1
			c0-0.3,0-0.7,0-1c0.9,0,1.7,0,2.5,0c0.4,0,0.7,0,1.1,0C135.4,267.9,135.4,267.9,135.4,268z"/>
		<path class="st4" d="M135.4,268c0-0.1-0.1-0.1-0.1-0.1c-0.4,0-0.7,0-1.1,0c-0.9,0-1.7,0-2.5,0c0-0.3,0-0.5,0-0.8
			c1.4,0,2.9-0.1,4.4-0.1c0.1,0,0.1,0,0.1,0c0,0.1,0,0.1,0,0.2c0.1,5.5,0.2,10.9,0.3,16.4c0,0.2,0,0.2-0.2,0.2s-0.3,0-0.5,0
			c-0.1,0-0.1,0-0.1-0.1v-0.1C135.6,278.4,135.5,273.2,135.4,268C135.5,268.1,135.4,268,135.4,268z"/>
	</g>
</g>
</svg>
