<?xml version="1.0" encoding="utf-8"?>
<!-- Generator: Adobe Illustrator 26.0.2, SVG Export Plug-In . SVG Version: 6.00 Build 0)  -->
<svg version="1.1" id="Capa_1" xmlns="http://www.w3.org/2000/svg" xmlns:xlink="http://www.w3.org/1999/xlink" x="0px" y="0px"
	 viewBox="0 0 288 288" style="enable-background:new 0 0 288 288;" xml:space="preserve">
<style type="text/css">
	.st0{fill:#3ddb83;}
</style>
<path class="st0" d="M198.3,105.4c-3.3-0.9-5.2-2.2-6.4-5.7c-7.1-20.5-26.4-34.1-48.1-34c-21.6,0.2-40.9,13.8-48.2,34.2
	c-1,2.4-3,4.2-5.4,5.1c-23.7,6.6-39.5,29-37.6,53.6c1.8,23.9,21.3,43.8,45.4,46.5c4.3,0.5,6.3-0.5,5.6-5.1c-0.3-1.8,0.5-3.9-0.2-5.4
	c-0.6-1.6-2.3-3.9-3.7-4.1c-19.4-2.6-33.1-18.2-32.4-37.3c0.7-19.1,15.4-34,34.9-34.8c4-0.2,5.2-1.3,5.8-5.3
	c2.6-19.2,17.3-32.4,35.7-32.6c18.4-0.2,33.2,12.8,36.2,32c0.7,4.5,2.2,5.8,6.8,6c18.6,0.9,33.5,16,34,34.6
	c0.5,19.2-13,35.2-31.8,37.2c-3.3,0.3-4.5,1.1-4.5,4.7c0,11.7,0,11.7,11.3,9.2c22.3-4.9,39.2-25.2,39.9-47.8
	C236.2,132.7,220.8,111.5,198.3,105.4z"/>
<path class="st0" d="M170.2,174.4c0-0.2-0.1-0.4-0.1-0.6c-0.1-0.5-0.7-0.9-1.1-1.3c-3.3-3.9-5-5.7-7-5.6c-1.9-0.2-3.7,1.4-7.4,5
	c-0.8,0.7-1.7,1.3-2.6,1.8c-0.2-0.9-0.4-1.8-0.5-2.8c0-11.8,0-23.6,0-35.4c0-2.3,0-4.1-0.1-5.5c0-0.1,0-0.3,0-0.4
	c0.1-3.5-1.1-4.5-4.5-4.5c-1.1,0-2,0-2.9,0c-0.9,0-1.8,0-2.9,0c-3.4,0-4.7,0.9-4.5,4.5c0,0.1,0,0.3,0,0.4c-0.1,1.4-0.1,3.2-0.1,5.5
	c0,11.8,0,23.6,0,35.4c-0.1,0.9-0.2,1.9-0.5,2.8c-0.9-0.6-1.8-1.2-2.6-1.8c-3.8-3.5-5.6-5.2-7.4-5c-2-0.1-3.7,1.7-7,5.6
	c-0.5,0.4-1.1,0.8-1.1,1.3c0,0.2-0.1,0.4-0.1,0.6c-0.1,0.4-0.1,0.8-0.1,1.2c0,0.7,0,1.3,0.4,1.7c2,2.1,4.1,4.1,6.2,6.2
	c5.9,6,11.9,12,18,17.9c0.1,0.1,0.1,0.1,0.2,0.2c0,0,0,0,0,0c0.3,0.3,0.9,0.4,1.6,0.4c0.7,0,1.3-0.1,1.6-0.4c0,0,0,0,0,0
	c0.1,0,0.2-0.1,0.2-0.2c6.1-5.9,12.1-11.9,18-17.9c2.1-2.1,4.1-4.1,6.2-6.2c0.3-0.3,0.4-1,0.4-1.7
	C170.3,175.2,170.3,174.8,170.2,174.4z"/>
</svg>
